<?xml version="1.0" standalone="no"?>
<!DOCTYPE svg PUBLIC "-//W3C//DTD SVG 1.1//EN" "http://www.w3.org/Graphics/SVG/1.1/DTD/svg11.dtd" >
<svg xmlns="http://www.w3.org/2000/svg">
<metadata></metadata>
<defs>
<font id="eurofurence_light_italic" horiz-adv-x="942" >
<font-face units-per-em="2048" ascent="1638" descent="-410" />
<missing-glyph horiz-adv-x="406" />
<glyph horiz-adv-x="2048" />
<glyph horiz-adv-x="2048" />
<glyph unicode="&#xd;" horiz-adv-x="406" />
<glyph unicode=" "  horiz-adv-x="406" />
<glyph unicode="&#x09;" horiz-adv-x="406" />
<glyph unicode="&#xa0;" horiz-adv-x="406" />
<glyph unicode="!" horiz-adv-x="325" d="M0 56q0 29 22.5 50.5t52.5 21.5q57 0 57 -55q0 -29 -23 -51t-53 -22q-56 0 -56 56zM115 360q0 8 43.5 174t140.5 522q16 67 46 172q10 23 29 23q32 0 32 -30q0 -8 -43.5 -173.5t-140.5 -522.5q-16 -67 -47 -172q-10 -23 -29 -23q-32 0 -31 30z" />
<glyph unicode="&#x22;" horiz-adv-x="613" d="M168 889q0 10 6 17l221 331q9 14 24 14q32 0 32 -30q0 -10 -5 -18l-221 -330q-9 -15 -25 -15q-32 0 -32 31zM499 889q0 10 5 17l221 331q9 14 25 14q31 0 31 -30q0 -10 -5 -18l-221 -330q-9 -15 -25 -15q-32 0 -31 31z" />
<glyph unicode="#" horiz-adv-x="1339" d="M44 427q0 31 31 31h372l90 335h-356q-31 0 -30 31q0 31 30 30h373l100 374q6 23 29 23q32 0 31 -30q0 -5 -97 -367h333l100 374q6 23 29 23q32 0 32 -30q0 -5 -97 -367h357q30 1 30 -30t-30 -31h-374l-89 -335h356q31 0 31 -31t-31 -31h-373l-100 -373q-6 -23 -29 -23 q-32 0 -32 30q0 5 97 366h-332l-100 -373q-6 -23 -29 -23q-32 0 -32 30q0 5 97 366h-356q-31 0 -31 31zM512 458h332l90 335h-333z" />
<glyph unicode="$" horiz-adv-x="768" d="M-18 197q0 30 33 30q4 0 53 -62q51 -67 80 -81l163 607q-112 62 -112 196q0 111 77 209q72 92 180 133l72 263q6 23 28 23q33 0 32 -30q0 -8 -61 -238q24 4 47 4q32 0 62 -7l68 248q6 23 28 23q33 0 33 -30q0 -9 -69 -264q34 -18 66 -57q37 -43 37 -76q0 -30 -33 -30 q-9 0 -42 44q-38 51 -45 56l-123 -460q161 -68 161 -251q0 -143 -104 -267q-99 -119 -240 -162l-70 -259q-6 -23 -29 -23q-32 0 -32 30q0 9 61 237q-24 -3 -48 -3q-32 0 -62 5l-66 -246q-6 -23 -29 -23q-32 0 -32 30q0 9 66 258q-48 21 -96 71q-54 56 -54 102zM210 65 q21 -4 45 -3q32 0 65 6l158 589q-36 1 -106 11zM261 887q0 -89 67 -135l107 399q-75 -41 -122 -110q-52 -74 -52 -154zM388 727q36 -2 106 -10l126 468q-21 4 -46 4q-32 0 -65 -9zM392 91q110 46 184 141q79 102 79 215q0 137 -115 191z" />
<glyph unicode="%" horiz-adv-x="1341" d="M-62 32q0 14 13 23l1508 1189q9 8 19 8q31 0 31 -33q0 -14 -12 -23l-1508 -1189q-10 -8 -19 -8q-32 0 -32 33zM178 887q0 141 116.5 252.5t258.5 111.5q100 0 167 -63.5t67 -163.5q0 -141 -117 -252t-259 -111q-100 0 -166.5 63t-66.5 163zM240 887q0 -75 48 -120 t123 -45q115 0 214.5 93.5t99.5 208.5q0 75 -48.5 120t-123.5 45q-116 0 -214.5 -93.5t-98.5 -208.5zM662 226q0 141 116.5 252.5t258.5 111.5q100 0 166.5 -63t66.5 -163q0 -141 -116.5 -252.5t-258.5 -111.5q-100 0 -166.5 63t-66.5 163zM723 226q0 -75 48.5 -119.5 t123.5 -44.5q116 0 215 93.5t99 208.5q0 75 -48.5 120t-123.5 45q-116 0 -215 -93.5t-99 -209.5z" />
<glyph unicode="&#x26;" horiz-adv-x="1033" d="M16 276q0 134 94 253q88 113 219 164q-51 70 -61 89q-24 47 -24 105q0 141 116.5 252.5t258.5 111.5q100 0 167 -63t67 -164q0 -141 -117 -252t-259 -111q-23 0 -45 -4l444 -608q7 -8 7 -18q0 -32 -33 -32q-14 0 -24 13l-144 199q-66 -93 -167 -151q-105 -60 -215 -60 q-122 0 -203 76.5t-81 199.5zM78 276q0 -97 62.5 -155.5t159.5 -58.5q101 0 196 58q89 55 146 144l-276 377q-118 -41 -200 -140q-88 -107 -88 -225zM306 887q0 -63 85 -174q43 10 86 9q116 0 215 93.5t99 208.5q0 75 -48.5 120t-123.5 45q-116 0 -214.5 -93.5t-98.5 -208.5 z" />
<glyph unicode="'" horiz-adv-x="282" d="M168 889q0 10 6 17l221 331q9 14 24 14q32 0 32 -30q0 -10 -5 -18l-221 -330q-9 -15 -25 -15q-32 0 -32 31z" />
<glyph unicode="(" horiz-adv-x="362" d="M-11 16q0 317 136 653q132 324 352 570q10 11 22 12q32 0 32 -32q0 -10 -8 -20q-52 -65 -150 -200q-322 -485 -323 -983q0 -178 55 -372q2 -5 2 -10q0 -30 -33 -30q-18 0 -28 23q-57 131 -57 389z" />
<glyph unicode=")" horiz-adv-x="362" d="M-168 -365q0 10 8 21q52 65 151 200q322 485 322 983q0 178 -55 371q-2 5 -2 10q0 30 33 30q18 0 28 -22q57 -131 57 -389q0 -317 -136 -654q-132 -324 -351 -569q-11 -11 -23 -12q-33 0 -32 31z" />
<glyph unicode="*" d="M151 824q0 32 30 30l351 -7q-53 67 -106 133q-85 111 -85 125q0 31 32 30q16 0 24 -13l170 -245l57 239q9 38 30 112q9 23 29 23q32 0 31 -30q0 -21 -41 -159q-26 -88 -54 -176l294 242q9 7 20 7q32 0 32 -32q0 -14 -13 -23l-308 -233l330 7q31 2 31 -30t-31 -31l-351 8 q53 -67 105 -134q85 -111 86 -124q0 -31 -32 -31q-15 0 -24 13l-170 245l-57 -239q-8 -38 -30 -112q-9 -23 -29 -23q-32 0 -32 30q0 21 42 159l54 176l-295 -242q-9 -7 -19 -7q-31 0 -31 32q0 14 12 23l308 234l-330 -8q-31 -1 -30 31z" />
<glyph unicode="+" d="M70 526q0 31 31 31h372l70 260q10 44 31 114q10 23 29 23q32 0 32 -30q0 -12 -96 -367h355q31 0 31 -31t-31 -31l-371 1l-70 -260q-10 -44 -32 -114q-10 -23 -28 -23q-33 0 -33 30q0 12 96 367l-355 -1q-31 0 -31 31z" />
<glyph unicode="," horiz-adv-x="268" d="M-137 -249q0 11 12 23q85 83 111 119q33 46 70 146q9 23 29 23q32 0 32 -30q0 -4 -1 -9q-52 -191 -203 -298q-10 -7 -19 -7q-32 0 -31 33z" />
<glyph unicode="-" horiz-adv-x="546" d="M44 427q0 31 31 31h396q31 0 31 -31t-31 -31h-396q-31 0 -31 31z" />
<glyph unicode="." horiz-adv-x="221" d="M-53 56q0 29 22.5 50.5t52.5 21.5q57 0 57 -55q0 -29 -23 -51t-52 -22q-57 0 -57 56z" />
<glyph unicode="/" horiz-adv-x="943" d="M-168 -366q0 10 6 18l1218 1586q10 13 24 14q32 0 32 -32q0 -10 -7 -19l-1218 -1586q-10 -13 -24 -13q-32 0 -31 32z" />
<glyph unicode="0" d="M48 369q0 236 171 453q181 231 412 231q150 0 237 -113q79 -102 79 -256q0 -236 -171 -453q-181 -231 -411 -231q-149 0 -236 113q-80 102 -81 256zM110 369q0 -128 63 -212q69 -95 192 -95q204 0 367 213q153 199 153 409q0 128 -61 212q-70 95 -193 95 q-204 0 -368 -213q-153 -199 -153 -409zM464 521q0 35 38 36q29 -1 29 -28q0 -36 -38 -36q-29 0 -29 28z" />
<glyph unicode="1" d="M137 31q0 31 30 31h219q33 137 235 878q-351 -280 -365 -280q-32 0 -31 32q0 14 12 23l415 328q13 11 23 11q31 0 31 -33q0 -2 -3 -12q-55 -184 -130 -473q-107 -409 -123 -474h202q31 0 31 -31t-31 -31h-485q-31 0 -30 31z" />
<glyph unicode="2" d="M0 27q0 18 19 30l680 428q67 42 112 128q43 83 43 164q0 97 -62.5 155.5t-159.5 58.5q-102 0 -202 -63q-96 -61 -148 -152q-12 -31 -39 -92q-11 -23 -29 -23q-32 0 -32 30q0 4 1 8q46 150 168 250q128 104 281 104q123 0 203.5 -77t80.5 -199q0 -97 -51 -194 q-52 -100 -133 -150l-589 -371h554q31 0 31 -31t-31 -31h-661q-36 0 -36 27z" />
<glyph unicode="3" d="M-11 15q0 30 32 30q18 0 31 -27q10 -22 18 -43q64 -112 216 -112q164 0 303 132.5t139 295.5q0 107 -69.5 172.5t-177.5 65.5q-75 0 -142 -30q-37 -16 -125 -71q-11 -6 -19 -6q-31 0 -31 31q0 15 14 25l696 513h-584q-31 0 -31 31t31 31h678q35 -1 35 -28q0 -16 -16 -28 l-557 -409q25 3 51 2q134 0 221.5 -83t87.5 -216q0 -189 -157 -339t-347 -150q-229 0 -296 203q-2 4 -1 10z" />
<glyph unicode="4" d="M-11 225q0 12 11 25l742 793q12 13 27 13q26 0 26 -29q0 -11 -45 -184q-53 -195 -158 -583h224q31 0 31 -31t-31 -31h-241l-100 -373q-6 -23 -29 -23q-32 0 -32 30q0 15 97 366h-488q-34 0 -34 27zM94 260h434l174 651z" />
<glyph unicode="5" d="M-36 32q0 30 32 30q18 0 34 -32q11 -25 21 -49q73 -117 234 -118q180 0 333 145t153 324q0 118 -77 190.5t-196 72.5q-174 0 -317 -131l-57 -57q-14 -14 -27 -14q-28 0 -28 30q0 7 121 299t133.5 311.5t28.5 19.5h648q31 0 31 -31t-31 -31h-627l-188 -443 q149 108 313 108q144 0 238 -89q96 -92 96 -235q0 -204 -170.5 -367t-376.5 -163q-246 0 -319 220q-2 4 -2 10z" />
<glyph unicode="6" d="M29 324q0 69 29 157q107 322 393 543q294 227 628 227q31 0 31 -31t-31 -31q-233 0 -458 -128q-213 -121 -359 -317q150 110 314 110q145 0 240 -89q96 -92 96 -235q0 -204 -171.5 -367t-376.5 -163q-144 0 -239.5 90.5t-95.5 233.5zM91 324q0 -118 77 -190t196 -72 q181 0 333.5 144.5t152.5 323.5q0 118 -77 190.5t-197 72.5q-181 0 -333 -144.5t-152 -324.5z" />
<glyph unicode="7" d="M37 -167q0 11 8 19l917 1139h-729q-31 0 -30 31q0 31 30 31h793q34 -1 34 -27q0 -11 -10 -24l-958 -1189q-10 -12 -22 -12q-33 0 -33 32z" />
<glyph unicode="8" d="M81 276q0 138 98 260q93 115 228 163q-99 63 -99 188q0 141 118 253q115 111 258 111q101 0 167 -63.5t66 -163.5q0 -106 -70 -200q-66 -88 -166 -133q145 -72 145 -244q0 -173 -143.5 -310t-317.5 -137q-122 0 -203 76.5t-81 199.5zM143 276q0 -97 62.5 -155.5 t159.5 -58.5q149 0 274.5 119t125.5 266q0 97 -62.5 155.5t-160.5 58.5q-147 0 -273 -119t-126 -266zM370 887q0 -75 48.5 -120t123.5 -45q116 0 214.5 93.5t98.5 208.5q0 75 -48 120t-123 45q-115 0 -214.5 -93.5t-99.5 -208.5z" />
<glyph unicode="9" d="M-115 -167q0 31 31 30q233 0 459 128q212 120 358 317q-150 -110 -314 -110q-144 0 -239 90.5t-95 233.5q0 204 170.5 367.5t376.5 163.5q144 0 239 -89q96 -92 96 -236q0 -69 -30 -156q-107 -322 -393 -543q-294 -227 -628 -227q-31 0 -31 31zM146 522q0 -118 77 -190 t196 -72q181 0 334 144t153 324q0 118 -77.5 190.5t-196.5 72.5q-180 0 -333 -144q-153 -146 -153 -325z" />
<glyph unicode=":" horiz-adv-x="221" d="M-53 56q0 29 22.5 50.5t52.5 21.5q57 0 57 -55q0 -29 -23 -51t-52 -22q-57 0 -57 56zM142 783q0 29 22.5 50t52.5 21q57 1 57 -54q0 -29 -23 -51t-52 -22q-57 0 -57 56z" />
<glyph unicode=";" horiz-adv-x="303" d="M-137 -249q0 11 12 23q85 83 111 119q33 46 70 146q9 23 29 23q32 0 32 -30q0 -4 -1 -9q-52 -191 -203 -298q-10 -7 -19 -7q-32 0 -31 33zM224 783q0 29 22.5 50t52.5 21q58 1 58 -54q0 -29 -23.5 -51t-52.5 -22q-57 0 -57 56z" />
<glyph unicode="&#x3c;" d="M70 525q0 19 24 32q53 28 477 213q421 184 431 184q29 0 29 -33q0 -16 -18 -27q-30 -12 -88 -39l-197 -87q-186 -84 -559 -246l634 -365q16 -10 16 -26q0 -33 -31 -32q-10 0 -330 183q-316 181 -367 215q-21 14 -21 28z" />
<glyph unicode="=" d="M35 394q0 31 31 31h793q31 0 31 -31t-31 -31l-793 1q-31 0 -31 30zM106 658q0 31 31 31h792q31 0 31 -31t-31 -31h-792q-31 0 -31 31z" />
<glyph unicode="&#x3e;" d="M-35 131q0 16 18 28q52 32 140 67q72 29 145 59l557 245q-74 41 -422 243q-73 38 -211 123q-15 11 -15 25q0 33 30 33q11 0 331 -183q315 -181 367 -215q21 -14 21 -28q0 -19 -25 -32q-51 -27 -474 -212t-432 -185q-30 0 -30 32z" />
<glyph unicode="?" horiz-adv-x="682" d="M166 484q0 93 76.5 165.5t170.5 72.5q116 0 215 93.5t99 208.5q0 74 -49 119.5t-124 45.5q-112 0 -188 -71q-56 -52 -117 -170q-11 -23 -29 -23q-32 0 -31 30v9q19 117 134 203q110 84 231 84q100 0 167 -63.5t67 -163.5q0 -141 -117 -252t-258 -111q-69 0 -127 -55 t-58 -122q0 -92 96 -92q16 0 45 11.5t45 11.5q30 0 30 -33q0 -26 -49 -40q-37 -11 -71 -12q-67 0 -112.5 43.5t-45.5 110.5zM179 56q0 29 23 50.5t52 21.5q57 0 57 -55q0 -29 -23 -51t-52 -22q-57 0 -57 56z" />
<glyph unicode="@" horiz-adv-x="1188" d="M78 471q0 300 253 542q250 238 553 238q159 0 264 -99t105 -258q0 -226 -191 -407q-187 -179 -415 -179q-107 0 -178.5 68t-71.5 175q0 152 126 272t278 120q108 0 179.5 -68t71.5 -176q0 -101 -63 -194q202 168 202 389q0 133 -87 214t-220 81q-277 0 -509 -219 q-236 -224 -236 -499q0 -184 122 -298q119 -111 305 -111q152 0 362 113q41 22 91 53l14 9q31 0 31 -32q0 -13 -12 -24q-214 -181 -486 -181q-211 0 -348 129q-140 132 -140 342zM459 551q0 -82 53.5 -131.5t134.5 -49.5q127 0 235 101.5t108 227.5q0 82 -53 132t-136 50 q-127 0 -234.5 -102t-107.5 -228z" />
<glyph unicode="A" horiz-adv-x="1339" d="M-63 31q0 16 423 568q410 536 494 636q14 17 28 17q24 0 31 -29.5t19 -85.5q63 -261 186 -781q21 -83 43 -166q28 -114 28 -160q0 -30 -32 -30q-19 0 -29 24q-8 33 -23 98l-65 274h-748l-207 -267q-27 -37 -55 -74q-43 -55 -60 -56q-33 0 -33 32zM340 458h685 q-55 230 -159 690q-122 -170 -526 -690z" />
<glyph unicode="B" horiz-adv-x="901" d="M26 29q0 14 155 595q155 584 166.5 605.5t28.5 21.5h330q100 0 167.5 -63.5t67.5 -163.5q0 -106 -71 -200q-66 -89 -167 -133q146 -73 146 -244q0 -174 -143.5 -311t-317.5 -137l-330 1q-32 0 -32 29zM98 62l290 -1q149 0 274 119t125 267q0 96 -62.5 155t-158.5 59h-308 zM275 722h291q116 0 214.5 93.5t98.5 208.5q0 74 -49 119.5t-124 45.5h-306z" />
<glyph unicode="C" horiz-adv-x="1167" d="M78 471q0 300 253 542q250 238 553 238q257 0 399 -187q6 -7 6 -18q0 -31 -33 -31q-1 0 -52 45q-59 54 -122 84q-93 45 -198 45q-277 0 -509 -220q-236 -223 -236 -498q0 -184 122 -298q119 -111 304 -111q209 0 448 167q10 7 19 7q31 0 31 -32q0 -13 -12 -23 q-95 -82 -228 -131.5t-258 -49.5q-211 0 -347 129q-140 132 -140 342z" />
<glyph unicode="D" horiz-adv-x="1231" d="M26 29q0 8 52 204q63 239 201 747l44 162q6 31 24 86q10 23 29 23h397q211 0 347 -130q141 -131 141 -341q0 -300 -254 -542q-250 -238 -552 -238h-397q-32 0 -32 29zM98 62h357q277 0 508 220q236 223 236 498q0 184 -122 298q-119 111 -304 111h-373z" />
<glyph unicode="E" horiz-adv-x="899" d="M26 29q0 8 61 237q64 240 196 726l41 154q6 29 23 82q10 23 29 23h661q31 0 31 -31t-31 -31h-637l-143 -533h489q31 0 31 -31t-31 -30h-506l-142 -533h621q31 0 31 -31t-31 -31h-661q-32 0 -32 29z" />
<glyph unicode="F" horiz-adv-x="899" d="M26 30q0 8 61 236l238 881q5 28 22 81q10 23 29 23h661q31 0 31 -31t-31 -31h-637l-143 -533h489q31 0 31 -31t-31 -30h-506l-153 -572q-6 -23 -28 -23q-33 0 -33 30z" />
<glyph unicode="G" horiz-adv-x="1211" d="M78 471q0 300 253 542q250 238 553 238q254 0 399 -187q6 -7 6 -18q0 -31 -33 -31q1 0 -52 45q-62 53 -126 84q-94 45 -194 45q-277 0 -509 -219q-236 -224 -236 -499q0 -184 122 -298q119 -111 305 -111q230 0 439 161l110 410q6 23 28 23q33 0 33 -30 q0 -24 -57.5 -228.5t-67.5 -216.5q-61 -72 -226 -129q-152 -52 -259 -52q-211 0 -348 129q-140 132 -140 342z" />
<glyph unicode="H" horiz-adv-x="1120" d="M26 30q0 18 152 587q152 573 169 611q10 23 28 23q33 0 33 -30q0 -16 -37 -156q-38 -137 -112 -409h726l103 382q12 66 52 190q10 23 28 23q33 0 33 -30q0 -18 -152 -587q-152 -573 -169 -611q-10 -23 -28 -23q-33 0 -33 30q0 14 31 132q40 144 118 433h-726l-103 -382 q-12 -66 -52 -190q-10 -23 -28 -23q-33 0 -33 30z" />
<glyph unicode="I" horiz-adv-x="325" d="M33 266l237 881q6 27 22 81q9 23 30 23q31 0 31 -30q0 -8 -61 -236l-237 -881q-6 -27 -22 -81q-9 -23 -29 -23q-31 0 -31 28q0 10 60 238z" />
<glyph unicode="J" horiz-adv-x="437" d="M-427 -232q0 30 32 30q12 0 33 -34q26 -44 50 -64q42 -34 109 -35q101 0 190.5 71.5t115.5 170.5l354 1321q6 23 28 23q33 0 33 -30q0 -10 -96 -367l-175 -651q-27 -105 -85 -312q-34 -121 -136 -203q-104 -84 -226 -84h-3q-168 0 -222 155q-2 4 -2 9z" />
<glyph unicode="K" horiz-adv-x="904" d="M26 30q0 26 152 593q152 570 169 605q11 23 28 23q33 0 33 -30q0 -9 -35 -143q-44 -174 -116 -445q3 8 12 16q54 53 403 326q353 277 370 277q31 0 31 -33q0 -11 -12 -23q-53 -53 -141 -119q-73 -55 -146 -111q-145 -119 -444 -346q424 -566 424 -589q0 -32 -32 -32 q-11 0 -24 13q-35 36 -238 317t-204 297q0 1 1 6q-66 -248 -113 -417q-20 -80 -57 -192q-11 -23 -28 -23q-33 0 -33 30z" />
<glyph unicode="L" horiz-adv-x="899" d="M26 29q0 9 61 237l237 880q7 28 23 82q9 23 28 23q33 0 33 -30q0 -9 -72 -274l-238 -885h621q31 0 31 -31t-31 -31h-661q-32 0 -32 29z" />
<glyph unicode="M" horiz-adv-x="1471" d="M-63 30q0 12 482 987q33 70 102 211q11 23 30 23q27 0 32 -31l136 -843q100 152 405 581q64 92 194 277q11 17 26 17q32 0 32 -32v-2l-55 -1189q-2 -29 -31 -29q-33 0 -30 33l49 1079q-128 -190 -401 -576q-60 -84 -178 -252q-13 -20 -29 -21q-26 0 -32 32l-132 824 q-61 -128 -359 -735q-59 -135 -182 -366q-11 -18 -26 -18q-33 0 -33 30z" />
<glyph unicode="N" horiz-adv-x="1256" d="M28 30q0 10 59 230q81 289 236 869q7 32 24 94q8 28 32 28q18 0 29 -21q60 -121 180 -361q131 -249 387 -751q51 198 197 736l70 259q8 39 31 115q10 23 29 23q32 0 32 -30q0 -10 -59 -230q-81 -289 -236 -869q-7 -32 -23 -94q-9 -28 -33 -28q-18 0 -29 21 q-59 121 -181 360q-130 249 -385 752q-52 -197 -198 -736l-70 -260q-8 -39 -31 -114q-9 -23 -29 -23q-32 0 -32 30z" />
<glyph unicode="O" horiz-adv-x="1342" d="M78 471q0 300 253 542q250 238 553 238q211 0 347 -130q140 -131 140 -341q0 -300 -254 -542q-250 -238 -552 -238q-211 0 -347 129q-140 132 -140 342zM139 471q0 -184 122 -298q119 -111 304 -111q277 0 510.5 221.5t233.5 496.5q0 184 -121 298q-119 111 -304 111 q-277 0 -509 -220q-236 -223 -236 -498z" />
<glyph unicode="P" horiz-adv-x="901" d="M26 30q0 13 155 596t166 602q11 23 29 23h330q122 0 203.5 -77t81.5 -199q0 -173 -143.5 -309.5t-318.5 -136.5h-306l-136 -506q-6 -23 -28 -23q-33 0 -33 30zM240 590h289q149 0 274.5 119t125.5 266q0 96 -63 155t-160 59h-306z" />
<glyph unicode="Q" horiz-adv-x="1342" d="M78 471q0 300 253 542q250 238 553 238q211 0 347 -130q140 -131 140 -341q0 -284 -229 -518q-223 -228 -509 -258q23 -158 143 -251q115 -88 278 -88q31 0 30 -31q0 -30 -28 -30h-2q-187 0 -320 104q-137 109 -162 292h-7q-209 0 -346 127q-142 132 -141 344zM139 471 q0 -185 123 -298q118 -111 304 -111v13v19q0 166 51 166q32 0 32 -30q0 -26 -10.5 -77.5t-10.5 -77.5v-10q262 28 469 239q212 217 212 476q0 184 -122 298q-118 111 -303 111q-277 0 -509 -219q-236 -224 -236 -499z" />
<glyph unicode="R" horiz-adv-x="902" d="M28 30q0 10 86 329l234 867q3 10 7 15l-2 -3q8 13 24 13h331q122 0 203.5 -77t81.5 -199q0 -173 -144 -309.5t-318 -136.5h-136q357 -475 356 -498q0 -32 -31 -32q-13 0 -25 13q-5 6 -137 184q-85 110 -244 339q-12 10 -12 24q0 31 37 31h192q149 0 274.5 119t125.5 266 q0 96 -63 155t-160 59h-306q-36 -145 -211 -790l-76 -277q-6 -34 -26 -99q-10 -23 -29 -23q-32 0 -32 30z" />
<glyph unicode="S" horiz-adv-x="768" d="M-18 197q0 30 33 30q11 0 36 -39q16 -26 32 -51q59 -75 172 -75q148 0 274 118.5t126 266.5q0 96 -63 155t-159 59q-100 0 -167 63t-67 163q0 141 117 254q116 110 258 110q169 0 223 -153q2 -5 2 -10q0 -30 -33 -30q-12 0 -32 34q-26 43 -51 63q-42 34 -109 34 q-116 0 -214.5 -93.5t-98.5 -208.5q0 -74 48.5 -119.5t123.5 -45.5q122 0 203 -77t81 -198q0 -173 -144 -310t-318 -137q-209 0 -271 188q-2 4 -2 9z" />
<glyph unicode="T" horiz-adv-x="898" d="M256 1220q0 31 31 31h793q31 0 31 -31t-31 -31h-373q-36 -145 -210 -790l-76 -277q-6 -34 -26 -99q-10 -23 -29 -23q-32 0 -32 30q0 10 75 290l234 869h-356q-31 0 -31 31zM680 1251h5h-5z" />
<glyph unicode="U" horiz-adv-x="1033" d="M75 324q0 55 15 111l213 793q6 23 28 23q33 0 33 -30q-1 -5 -2 -9l-212 -793q-13 -48 -13 -95q0 -118 77.5 -190t195.5 -72q159 0 295 111q130 107 178 262q33 106 151 563q15 79 62 230q10 23 28 23q33 0 33 -30q0 -7 -84 -315q-41 -163 -130 -487q-54 -177 -200 -296 q-152 -123 -333 -123q-145 0 -240 90.5t-95 233.5z" />
<glyph unicode="V" horiz-adv-x="1295" d="M257 1221q0 30 32 30q26 0 41 -61q8 -42 16 -85q80 -334 234 -1002q110 153 533 698q108 151 340 437q11 13 23 14q32 0 32 -32q0 -16 -422 -568q-411 -536 -495 -636q-14 -17 -26 -17q-25 0 -33 31q-5 28 -18 84q-63 261 -185 781q-21 83 -44 166q-28 115 -28 160z" />
<glyph unicode="W" horiz-adv-x="1890" d="M257 1221q0 30 32 30q26 0 41 -61q8 -42 16 -85q80 -334 234 -1002q100 140 404 532l-94 408q-38 160 -38 178q0 30 32 30q19 0 29 -24q12 -54 37 -159l86 -365l285 367q41 58 132 168q11 13 23 14q32 0 32 -32q0 -19 -451 -604q40 -171 118 -513q114 158 532 698 q109 152 340 437q11 13 24 14q32 0 32 -32q0 -16 -422 -568q-410 -536 -495 -636q-14 -17 -27 -17q-16 0 -26 15q-4 4 -129 534q-132 -181 -413 -532q-3 -4 -8 -10q-8 -7 -18 -7q-25 0 -33 31q-5 28 -18 84q-63 261 -185 781q-21 83 -44 166q-28 115 -28 160z" />
<glyph unicode="X" horiz-adv-x="1076" d="M-62 31q0 14 613 600q-295 576 -295 590q0 30 33 30q15 0 26 -17q1 -1 96 -187l191 -370q598 574 611 575q32 0 32 -32q0 -14 -614 -600q295 -576 295 -590q0 -30 -33 -30q-15 0 -26 17q-1 1 -96 186l-190 370q-599 -574 -612 -574q-31 0 -31 32z" />
<glyph unicode="Y" horiz-adv-x="1032" d="M256 1221q0 30 33 30q15 0 26 -17q4 -7 98 -189q64 -122 187 -368q600 575 613 575q32 0 32 -32q0 -14 -627 -611q-35 -131 -104 -396q-13 -65 -52 -190q-11 -23 -29 -23q-32 0 -32 30q0 18 33 144q41 149 124 448q-302 583 -302 599z" />
<glyph unicode="Z" horiz-adv-x="1075" d="M-62 31q1 14 13 24l1185 1134h-848q-31 0 -31 31t31 31q111 0 334.5 -1.5t334.5 -1.5h174h10q27 0 72 4q7 -2 15 -5q13 -7 17 -27q-2 -14 -14 -25l-1185 -1133h848q31 0 31 -31t-31 -31q-111 0 -334.5 1.5t-333.5 1.5h-175h-10q-27 0 -72 -4q-7 2 -14 5q-14 7 -17 27z " />
<glyph unicode="[" horiz-adv-x="635" d="M-79 -367q0 18 203 786q205 773 223 809q11 23 29 23h397q30 0 30 -31t-30 -31h-373l-408 -1524h356q31 0 31 -31t-31 -30h-396q-31 0 -31 29z" />
<glyph unicode="\" horiz-adv-x="943" d="M257 1221q0 30 32 30q21 0 29 -24q12 -52 36 -154l309 -1325q23 -106 23 -115q0 -30 -32 -30q-21 0 -29 24q-12 52 -36 154l-309 1324q-23 107 -23 116z" />
<glyph unicode="]" horiz-adv-x="611" d="M-168 -366q0 31 31 31h372l409 1524h-357q-31 0 -31 31t31 31h397q31 0 31 -29q0 -18 -204 -787q-205 -773 -222 -808q-11 -23 -30 -23h-396q-31 0 -31 30z" />
<glyph unicode="^" horiz-adv-x="679" d="M186 957q0 -33 31 -33q24 0 328 250q166 -250 200 -250q32 0 32 32q0 20 -101 155t-123 141l4 -1q-17 4 -176 -120q-147 -115 -183 -151q-12 -12 -12 -23zM551 1251q2 1 6 0q-4 1 -6 0zM551 1251q1 1 2 1z" />
<glyph unicode="_" horiz-adv-x="1057" d="M0 -70h1057v-62h-1057v62z" />
<glyph unicode="`" horiz-adv-x="281" d="M256 1220q0 31 32 31q24 0 30 -27q6 -43 19 -126q25 -159 25 -208q0 -31 -32 -31q-24 0 -30 26q-6 43 -19 127q-25 159 -25 208z" />
<glyph unicode="a" horiz-adv-x="946" d="M23 292q0 215 195 391q188 171 404 171h3q69 0 158 -30q114 -36 114 -88q0 -11 -92 -354.5t-99 -358.5q-11 -23 -29 -23q-33 0 -32 30q0 11 33 133q-157 -163 -354 -163q-130 0 -215.5 81.5t-85.5 210.5zM85 292q0 -103 67.5 -166.5t171.5 -63.5q111 0 216 67 q100 63 159 163q39 66 76 211q29 112 56 224q-71 66 -206 66q-192 0 -364 -154q-176 -158 -176 -347z" />
<glyph unicode="b" horiz-adv-x="900" d="M44 226q0 38 58 253l201 749q6 23 28 23q33 0 33 -30q0 -4 -142 -532q154 165 355 165h2q130 0 215.5 -81t85.5 -210q0 -50 -14 -100q-52 -191 -220 -326q-172 -137 -368 -137q-101 0 -167.5 63t-66.5 163zM106 226q0 -75 48.5 -119.5t123.5 -44.5q177 0 330 124 q148 120 199 293q11 40 11 84q0 104 -67 167t-172 63q-138 0 -259.5 -97.5t-158.5 -232.5q-55 -205 -55 -237z" />
<glyph unicode="c" horiz-adv-x="828" d="M32 324q0 205 171 369q170 161 376 161q179 0 274 -128q7 -9 7 -19q0 -31 -33 -30q-3 0 -39 29q-42 36 -82 57q-61 30 -127 30q-180 0 -331 -144q-154 -145 -155 -325q0 -118 77.5 -190t195.5 -72q78 0 163 37q34 15 148 79q31 -1 31 -33q0 -12 -12 -23q-59 -54 -153 -88 t-177 -34q-144 0 -239 90.5t-95 233.5z" />
<glyph unicode="d" horiz-adv-x="944" d="M21 292q0 52 13 99q55 194 221 327q168 136 365 136h3q135 0 224 -61l117 435q6 23 28 23q32 0 32 -30q0 -7 -50 -193l-270 -1005q-5 -23 -28 -23q-33 0 -33 30q0 8 35 136q-155 -166 -356 -166q-131 0 -216 81t-85 211zM83 292q0 -104 67.5 -167t171.5 -63q141 0 260 97 q114 92 157 232q1 2 90 337q-68 65 -206 65q-175 0 -331 -124q-152 -122 -198 -294q-11 -41 -11 -83z" />
<glyph unicode="e" horiz-adv-x="733" d="M32 324q0 205 171 369q170 161 376 161q74 0 123 -47t49 -120q0 -144 -159 -235q-146 -84 -477 -238q64 -152 251 -152q35 0 99.5 22.5t98.5 22.5q30 0 30 -32q0 -33 -99 -57q-77 -18 -129 -18q-144 0 -239 90.5t-95 233.5zM93 324q0 -26 4 -50l468 233q125 63 125 180 q0 46 -30 76t-76 30q-182 0 -336 -142q-155 -145 -155 -327z" />
<glyph unicode="f" horiz-adv-x="643" d="M30 -366q0 31 30 138q22 73 43 146l235 875h-157q-31 0 -30 31q0 31 30 30h174l48 176q26 94 105.5 157.5t175.5 63.5q43 0 95 -24q60 -28 60 -65q0 -31 -31 -31q-3 0 -43.5 29t-80.5 29q-126 0 -190 -112q-30 -52 -75 -223h159q31 0 31 -30q0 -31 -31 -31h-175 l-312 -1166q-6 -23 -29 -23q-32 0 -32 30z" />
<glyph unicode="g" horiz-adv-x="813" d="M-90 -121q0 116 42 117q33 0 32 -30q0 -14 -6 -43.5t-6 -43.5q0 -96 63 -155t160 -59q148 0 274 119t126 266q0 96 -63.5 155t-159.5 59q-100 0 -167.5 63.5t-67.5 163.5q0 141 117.5 252t259.5 111h330h2q29 0 29 -30q0 -31 -31 -31h-165q68 -64 68 -165 q0 -106 -70 -200q-66 -88 -167 -133q146 -73 146 -245q0 -173 -144 -309.5t-317 -136.5q-122 0 -203.5 77t-81.5 198zM199 491q0 -74 49 -119.5t124 -45.5q116 0 214.5 93.5t98.5 208.5q0 74 -48.5 119.5t-122.5 45.5q-116 0 -215.5 -93.5t-99.5 -208.5z" />
<glyph unicode="h" horiz-adv-x="812" d="M26 30q0 23 151.5 592.5t169.5 605.5q11 23 28 23q33 0 33 -30q0 -13 -123 -471q115 104 250 104q100 0 166.5 -63t66.5 -163q0 -39 -66.5 -304t-85.5 -301q-11 -23 -28 -23q-33 0 -33 30q0 10 35 138l72 269q44 162 44 191q0 74 -48 119.5t-123 45.5q-102 0 -187 -69 q-78 -63 -115 -164q-34 -92 -112 -414q-9 -41 -19 -83q-18 -63 -43 -63q-33 0 -33 30z" />
<glyph unicode="i" horiz-adv-x="325" d="M27 39l213 793q6 23 29 22q31 0 31 -30q-1 -5 -1 -8l-213 -793q-6 -23 -29 -23q-31 0 -31 28zM299 1178q0 29 23.5 51t52.5 22q58 -1 58 -57q0 -29 -23 -50t-52 -21q-58 0 -59 55z" />
<glyph unicode="j" horiz-adv-x="325" d="M-372 -277q4 0 42 -29t82 -29q73 0 138 52t84 124l266 991q6 23 29 22q31 0 31 -30q0 -10 -72 -277q-61 -241 -195 -722q-28 -93 -105 -156q-80 -65 -176 -65q-42 0 -94 23q-61 28 -61 65q0 32 31 31zM299 1178q0 29 23.5 51t52.5 22q58 -1 58 -57q0 -29 -23 -50t-52 -21 q-58 0 -59 55z" />
<glyph unicode="k" horiz-adv-x="708" d="M28 30q0 12 61 237l237 879q5 28 22 82q11 23 29 23q33 0 33 -30q0 -12 -61 -237l-237 -879q-5 -28 -23 -82q-11 -23 -28 -23q-33 0 -33 30zM205 427q0 14 12 24l503 396q9 8 19 8h2q29 0 29 -32q0 -14 -12 -23l-480 -379l273 -372q6 -9 7 -18q0 -32 -32 -32 q-15 0 -25 13l-290 397q-6 9 -6 18z" />
<glyph unicode="l" horiz-adv-x="392" d="M29 178q0 29 8 59l266 991q6 23 28 23q33 0 33 -30q-1 -5 -2 -9l-265 -991q-6 -22 -6 -43q0 -63 39 -90q18 -11 73 -26q40 -10 40 -31q0 -31 -31 -31q-78 0 -130.5 50t-52.5 128z" />
<glyph unicode="m" horiz-adv-x="1340" d="M26 30q0 9 33 129l164 607q4 23 17 66q10 22 28 22h2q32 0 31 -30q0 -16 -19 -75q116 105 250 105h3q79 0 141.5 -43t82.5 -118q123 161 304 161q100 0 167 -63t67 -163q0 -41 -66.5 -305t-86.5 -300q-11 -23 -28 -23q-33 0 -33 30q0 11 32 123q24 92 74 275 q46 162 46 200q0 74 -48.5 119.5t-123.5 45.5q-204 0 -305 -242l-1 -1q-26 -82 -99 -373q-9 -54 -42 -154q-11 -23 -28 -23q-33 0 -33 30q0 11 31 123q25 92 75 275q46 162 45 200q0 74 -48 119.5t-123 45.5q-103 0 -191 -72q-84 -69 -115 -170q-24 -77 -96 -357 q-11 -60 -46 -171q-11 -23 -28 -23q-33 0 -33 30z" />
<glyph unicode="n" horiz-adv-x="812" d="M26 30q0 4 148 555l66 247q6 22 28 22h2q32 0 31 -30q0 -11 -19 -75q116 105 250 105h3q100 0 166.5 -63t66.5 -163q0 -40 -66.5 -304t-85.5 -301q-11 -23 -28 -23q-33 0 -33 30q0 10 32 123l74 275q46 165 45 200q0 74 -48 119.5t-123 45.5q-102 0 -191 -72 q-85 -69 -115 -170q-18 -60 -100 -375q-11 -53 -42 -153q-10 -23 -28 -23q-33 0 -33 30z" />
<glyph unicode="o" horiz-adv-x="946" d="M32 324q0 205 171 369q170 161 376 161q145 0 239 -89q96 -91 96 -235q0 -205 -172 -369q-169 -161 -376 -161q-144 0 -239 90.5t-95 233.5zM93 324q0 -118 77.5 -190t195.5 -72q181 0 334 144t153 324q0 118 -77 190.5t-197 72.5q-180 0 -331 -144q-154 -145 -155 -325z " />
<glyph unicode="p" horiz-adv-x="944" d="M-30 -174l270 1006q6 22 28 22h2q32 0 31 -30q0 -8 -35 -135q155 165 355 165h2q130 0 215.5 -81t85.5 -210q0 -51 -14 -100q-54 -192 -220 -326q-171 -137 -368 -137q-135 0 -224 62l-116 -435q-6 -23 -30 -23q-31 0 -31 28q0 9 49 194zM115 127q68 -65 207 -65 q175 0 330 124q152 122 199 293q11 42 11 84q0 104 -67 167t-172 63q-141 0 -260 -98q-114 -93 -158 -232q-1 -4 -90 -336z" />
<glyph unicode="q" horiz-adv-x="944" d="M21 292q0 52 13 99q55 194 221 327q168 136 365 136h3q178 0 262 -96q10 -11 10 -23q0 -1 -96 -360l-201 -748q-6 -23 -29 -23q-32 0 -32 30q0 7 32 126q36 135 109 406q-155 -166 -356 -166q-131 0 -216 81t-85 211zM83 292q0 -104 67.5 -167t171.5 -63q141 0 260 97 q113 93 157 232q1 2 90 337q-71 65 -206 65q-175 0 -331 -124q-152 -122 -198 -294q-11 -41 -11 -83z" />
<glyph unicode="r" horiz-adv-x="609" d="M26 30q0 8 37 144q41 152 125 459l52 199q6 22 28 22h2q32 0 31 -30q0 -11 -7 -30q83 60 172 60h3q58 0 113 -36q63 -40 63 -95q0 -30 -33 -30q-8 0 -44 50t-99 50q-73 0 -138 -52.5t-84 -123.5l-160 -594q-6 -23 -28 -23q-33 0 -33 30z" />
<glyph unicode="s" horiz-adv-x="597" d="M-23 176q0 34 31 35q17 0 32 -39q20 -51 38 -72q36 -38 103 -38h3q100 0 185.5 80.5t85.5 179.5q0 63 -45 103q-42 37 -107 37q-69 0 -113.5 42.5t-44.5 111.5q0 93 76.5 165.5t170.5 72.5q50 0 98 -30q53 -35 53 -83q0 -30 -31 -30q-12 0 -39.5 41t-80.5 41 q-69 0 -127 -54.5t-58 -122.5q0 -92 100 -92q89 0 149 -57t60 -145q0 -126 -103 -224t-229 -98q-78 0 -140 48q-67 53 -67 128z" />
<glyph unicode="t" horiz-adv-x="687" d="M181 854h175l99 374q6 23 29 23q32 0 32 -30q0 -27 -41 -175q-28 -95 -56 -192h159q31 1 31 -30t-31 -31h-175l-153 -572q-6 -22 -6 -43q0 -53 34.5 -84.5t86.5 -31.5q40 0 98 29l58 29q32 0 31 -32q0 -33 -78 -63q-67 -25 -109 -25q-78 0 -130.5 50t-52.5 128q0 29 8 59 l149 556h-158q-30 0 -30 29q0 33 30 32z" />
<glyph unicode="u" horiz-adv-x="768" d="M44 226q0 39 67 304t85 302q12 22 29 22h1q32 0 31 -30q0 -10 -32 -130l-77 -283q-42 -149 -42 -185q0 -74 48.5 -119t123.5 -45q204 0 305 241l1 2q20 67 97 365q10 55 44 162q11 22 28 22h1q32 0 32 -30q0 -18 -43 -173q-32 -122 -100 -364q-36 -121 -137 -202 q-105 -85 -228 -85q-100 0 -167 63.5t-67 162.5z" />
<glyph unicode="v" horiz-adv-x="943" d="M151 824q0 30 31 30q18 0 29 -23q20 -46 36 -121q11 -62 23 -123q38 -160 111 -483q72 100 353 462q68 96 216 276q12 13 23 13h2q31 0 31 -31q0 -16 -282 -384q-272 -356 -331 -424q-14 -17 -27 -17q-23 0 -32 31q-13 63 -42 187q-19 83 -94 391q-15 54 -31 107 q-16 60 -16 104v5z" />
<glyph unicode="w" horiz-adv-x="1471" d="M151 824q0 30 31 30q18 0 29 -23q21 -46 36 -121q11 -63 23 -124q39 -161 112 -483l354 461q-18 64 -36 129q-21 79 -21 131q0 30 32 30q18 0 29 -23q21 -46 35 -121q11 -62 23 -123q38 -160 112 -483q75 104 352 462q67 97 216 276q12 13 24 13h2q30 0 30 -31 q0 -16 -281 -384q-272 -356 -332 -424q-14 -17 -26 -17q-14 0 -26 15q-5 4 -114 472l-362 -470q-12 -17 -27 -17q-23 0 -32 31q-13 63 -42 187q-14 59 -94 391q-15 54 -31 107q-16 60 -16 104v5z" />
<glyph unicode="x" horiz-adv-x="812" d="M-61 32q0 18 193 193q116 103 233 207q-214 377 -214 392q0 30 31 30q14 0 27 -15l63 -111l144 -251q412 378 425 378h2q30 0 30 -32q0 -15 -426 -400q215 -377 215 -393q0 -30 -33 -30q-14 0 -26 16q-1 0 -63 110l-144 251q-412 -378 -426 -378q-31 0 -31 33z" />
<glyph unicode="y" horiz-adv-x="812" d="M-53 -233q0 30 33 30q11 0 32 -35q26 -43 51 -62q43 -34 109 -35q206 0 305 243q18 69 53 199q-114 -107 -252 -107q-100 0 -167 63.5t-67 162.5q0 39 67 304t85 302q12 22 29 22h1q32 0 31 -30q0 -10 -31 -123l-74 -275q-47 -164 -46 -200q0 -74 48.5 -119t123.5 -45 q101 0 191 74q86 70 115 170q20 66 97 364q11 55 44 162q11 22 28 22h1q32 0 32 -30q0 -20 -65 -258q-60 -226 -185 -675q-35 -121 -136 -203q-104 -84 -225 -84h-3q-169 0 -223 152q-2 5 -2 11z" />
<glyph unicode="z" horiz-adv-x="811" d="M-62 32q0 12 14 24l811 737h-582q-31 0 -30 31q0 31 30 30q100 0 301 -1.5t301 -1.5q37 0 59 4q32 -6 32 -32q0 -12 -13 -25l-812 -736h581q31 0 31 -31t-31 -31q-100 0 -300.5 2t-301.5 2q-37 0 -59 -5q-31 6 -31 33z" />
<glyph unicode="{" horiz-adv-x="484" d="M62 427q0 31 30 31q75 0 138 52q60 49 84 123q33 133 106 397q29 94 106 156q79 65 175 65q31 0 31 -31t-31 -31q-75 0 -138 -52q-59 -49 -84 -123q-33 -133 -106 -397q-42 -136 -167 -194q69 -51 69 -143q0 -87 -60 -249.5t-60 -248.5q0 -62 40 -89q18 -12 73 -28 q40 -11 39 -31q0 -31 -30 -30q-78 0 -131 49.5t-53 128.5q0 87 60 249.5t60 248.5q0 53 -34 84.5t-87 31.5q-31 0 -30 31z" />
<glyph unicode="|" horiz-adv-x="275" d="M-105 -366q0 9 81 313l316 1173q9 37 30 108q9 23 29 23q31 0 31 -30q0 -9 -81 -314l-316 -1173q-8 -37 -29 -107q-8 -23 -28 -23q-33 0 -33 30z" />
<glyph unicode="}" horiz-adv-x="616" d="M-133 -366q0 31 31 31q75 0 137 52q60 49 84 124q33 133 107 396q42 136 167 195q-70 51 -70 142q0 87 60.5 250t60.5 249q0 62 -40 89q-18 12 -73 27q-40 11 -39 31q0 31 30 31q78 0 131 -50t53 -128q0 -87 -60.5 -249.5t-60.5 -249.5q0 -53 34 -84.5t87 -31.5 q31 0 31 -31t-31 -31q-75 0 -138 -52q-59 -49 -83 -123q-33 -133 -106 -396q-30 -94 -106 -156q-79 -65 -175 -65q-31 0 -31 30z" />
<glyph unicode="~" horiz-adv-x="783" d="M69 426q0 42 72 73q59 25 109 25q65 0 127 -66t101 -66q54 0 102.5 33t47.5 33q32 0 32 -30q0 -42 -72 -73q-59 -25 -110 -25q-65 0 -126.5 66t-101.5 66q-54 0 -102 -33t-47 -33q-33 0 -32 30z" />
<glyph unicode="&#xa1;" horiz-adv-x="325" d="M-80 -366q0 7 43 171q45 168 142 524q16 68 46 172q10 23 29 23q31 0 31 -30q0 -7 -43 -172q-45 -168 -142 -524q-16 -68 -45 -171q-10 -23 -29 -23q-32 0 -32 30zM194 781q0 29 23 51t53 22q56 0 56 -56q0 -29 -22.5 -50t-52.5 -21q-57 0 -57 54z" />
<glyph unicode="&#xa2;" horiz-adv-x="828" d="M32 324q0 175 131 326q125 144 299 189l59 213q6 23 29 23q32 0 31 -30q0 -8 -49 -193q24 3 47 2q32 0 63 -5l55 203q6 23 29 23q32 0 32 -30q0 -8 -54 -211q41 -15 92 -51q64 -44 64 -76q0 -31 -33 -30q-6 0 -25 17q-62 58 -115 79l-184 -686q65 24 143 73q27 18 31 18 q31 0 31 -33q0 -32 -96 -79q-76 -37 -129 -51l-58 -212q-6 -23 -29 -23q-32 0 -31 30q0 8 49 193q-24 -3 -48 -3q-32 0 -62 4l-55 -201q-6 -23 -29 -23q-32 0 -31 30q0 8 53 210q-99 34 -154.5 116t-55.5 188zM93 324q0 -185 165 -244l186 690q-144 -49 -244 -171 q-107 -129 -107 -275zM321 65q23 -4 45 -3q33 0 66 6l193 721q-23 4 -46 4q-32 0 -65 -6z" />
<glyph unicode="&#xa3;" horiz-adv-x="944" d="M-63 31q0 31 33 31q74 0 138.5 51.5t82.5 123.5l79 292h-158q-31 0 -31 30q0 31 31 31h174l54 203h-158q-31 0 -30 31q0 31 30 30h175l47 176q25 92 105.5 156.5t175.5 64.5q42 0 95 -24q61 -28 61 -65q0 -31 -32 -31q-4 0 -42.5 29t-81.5 29q-74 0 -138 -51.5 t-84 -123.5l-42 -160h158q31 0 31 -30q0 -31 -31 -31h-175l-54 -203h158q31 0 31 -31t-31 -30h-174l-83 -308q-26 -94 -110 -159h622q31 0 31 -31t-31 -31h-793q-33 0 -33 31z" />
<glyph unicode="&#xa4;" horiz-adv-x="946" d="M-61 32q0 26 136 124q-43 74 -43 168q0 220 193 388q-73 92 -73 112q0 32 31 31q23 0 93 -103q146 102 303 102q158 0 253 -103q122 104 144 104q31 1 31 -32q0 -27 -136 -124q43 -74 43 -169q0 -220 -193 -387q74 -92 74 -112q0 -32 -33 -32q-22 0 -93 103 q-145 -102 -303 -102t-252 103q-122 -104 -144 -104q-31 0 -31 33zM93 324q0 -118 77.5 -190t195.5 -72q181 0 334 144t153 324q0 118 -77 190.5t-197 72.5q-180 0 -333 -144.5t-153 -324.5z" />
<glyph unicode="&#xa5;" horiz-adv-x="1076" d="M226 361q0 31 30 31h240l55 203h-224q-31 0 -31 30q0 31 31 31h214q-285 546 -285 565q0 30 33 30q14 0 26 -17q4 -4 98 -189q64 -122 187 -368q600 575 613 575q32 0 32 -32q0 -14 -577 -564h187q31 0 31 -31t-31 -30h-240q-13 -55 -53 -203h223q31 0 31 -31t-31 -31 h-240q-25 -116 -83 -307q-11 -23 -29 -23q-32 0 -32 30q0 12 78 300h-223q-30 0 -30 31z" />
<glyph unicode="&#xa6;" horiz-adv-x="327" d="M-79 -366q0 11 85 331t93 338q11 23 29 23q31 0 31 -30q0 -11 -85 -331.5t-92 -337.5q-11 -23 -30 -23q-32 0 -31 30zM168 558q0 11 85 331.5t94 338.5q11 23 28 23q33 0 33 -30q0 -11 -85 -331.5t-94 -338.5q-11 -23 -29 -22q-32 0 -32 29z" />
<glyph unicode="&#xa7;" horiz-adv-x="680" d="M-97 -232q0 30 33 30q12 0 32 -34q26 -44 50 -64q43 -34 111 -35q115 0 214 93.5t99 208.5q0 74 -49 119.5t-123 45.5q-100 0 -167 63.5t-67 163.5q0 107 73 203q69 90 173 133q-104 63 -104 192q0 141 116.5 252.5t258.5 111.5q172 0 223 -155q2 -5 2 -10q0 -30 -32 -30 q-12 0 -33 35q-26 44 -51 64q-42 34 -109 34q-116 0 -214.5 -93.5t-98.5 -208.5q0 -74 48 -119.5t123 -45.5q100 0 167 -63.5t67 -162.5q0 -107 -72 -204q-70 -90 -173 -133q104 -63 104 -192q0 -141 -117 -252t-258 -111q-172 0 -224 155q-2 4 -2 9zM98 359 q0 -74 48.5 -119.5t123.5 -45.5q116 0 214.5 93.5t98.5 208.5q0 74 -48.5 119.5t-123.5 45.5q-116 0 -214.5 -93.5t-98.5 -208.5z" />
<glyph unicode="&#xa8;" horiz-adv-x="614" d="M230 1112q0 29 22 51t51 22q57 0 57 -55q0 -29 -23 -51t-52 -22q-55 0 -55 55zM626 1112q0 29 22 51t51 22q58 0 58 -55q0 -29 -23 -51t-52 -22q-55 0 -56 55z" />
<glyph unicode="&#xa9;" horiz-adv-x="1342" d="M78 471q0 300 253 542q250 238 553 238q211 0 347 -130q140 -131 140 -341q0 -300 -253 -542q-250 -238 -552 -238q-211 0 -348 129q-140 132 -140 342zM139 471q0 -184 122 -298q119 -111 305 -111q277 0 508 219q235 224 235 499q0 184 -122 298q-118 111 -303 111 q-277 0 -509 -219q-236 -224 -236 -499zM386 548q0 158 130.5 281.5t287.5 123.5q138 0 212 -99q6 -9 6 -19q0 -31 -32 -31q3 0 -58 43.5t-128 43.5q-132 0 -244.5 -105.5t-112.5 -237.5q0 -85 56 -137t142 -52q63 0 151 44t82 44q31 0 31 -33q0 -41 -113 -82 q-97 -35 -151 -35q-111 0 -185 70.5t-74 180.5z" />
<glyph unicode="&#xaa;" horiz-adv-x="681" d="M47 427q0 31 31 31h528q31 0 31 -31t-31 -31h-528q-31 0 -31 31zM174 874q0 157 149 281q142 118 303 118q55 0 125 -22q88 -29 88 -72q-123 -477 -133.5 -500t-28.5 -23q-32 0 -32 30q0 11 17 70q-113 -100 -251 -100q-100 0 -166 58q-71 61 -71 160zM236 874 q0 -73 52 -116q49 -41 123 -40q100 0 185 63.5t116 160.5q0 3 61 229q-54 41 -147 40q-136 0 -260 -99q-130 -106 -130 -238z" />
<glyph unicode="&#xab;" horiz-adv-x="679" d="M44 427q0 15 11 24q57 91 183 250q38 48 117 141q12 13 24 13q32 1 32 -31q0 -21 -303 -404q22 -85 64 -256q26 -112 26 -134q0 -30 -32 -30q-18 0 -28.5 23.5t-52 202.5t-41.5 201zM374 427q0 15 12 24q57 91 182 250q38 48 117 141q12 13 24 13q33 1 33 -31 q0 -21 -303 -404q22 -85 63 -256q26 -112 27 -134q0 -30 -32 -30q-18 0 -29 23.5t-52.5 202.5t-41.5 201z" />
<glyph unicode="&#xac;" d="M43 427q0 31 31 31h704q32 0 32 -30q0 -14 -49 -198t-58.5 -207t-28.5 -23q-32 0 -32 30q0 15 97 366h-665q-31 0 -31 31z" />
<glyph unicode="&#xad;" horiz-adv-x="546" d="M44 427q0 31 31 31h396q31 0 31 -31t-31 -31h-396q-31 0 -31 31z" />
<glyph unicode="&#xae;" horiz-adv-x="1342" d="M78 471q0 300 253 542q250 238 553 238q211 0 347 -130q140 -131 140 -341q0 -300 -253 -542q-250 -238 -552 -238q-211 0 -348 129q-140 132 -140 342zM139 471q0 -184 122 -297q119 -112 305 -112q277 0 508 219q235 223 235 499q0 184 -122 297q-118 112 -303 112 q-277 0 -509 -219q-236 -223 -236 -499zM482 327q0 10 78.5 303.5t81.5 300.5q14 22 30 22h165q67 0 112 -43t45 -109q0 -93 -76 -166.5t-169 -73.5l-39 1q165 -221 165 -234q0 -31 -33 -31q-18 0 -118 134q-95 130 -107 164l-74 -275q-6 -23 -29 -23q-32 0 -32 30zM620 610 q11 12 29 13h100q68 0 126 55t58 123q0 91 -96 90h-141z" />
<glyph unicode="&#xaf;" d="M363 1616q0 31 31 31h793q30 0 30 -31t-30 -30h-793q-31 0 -31 30z" />
<glyph unicode="&#xb0;" horiz-adv-x="680" d="M178 887q0 141 117 254q116 110 258 110q100 0 167 -63.5t67 -163.5q0 -141 -117 -252t-259 -111q-100 0 -166.5 63t-66.5 163zM240 887q0 -74 48 -119.5t123 -45.5q116 0 215 93.5t99 208.5q0 74 -48.5 119.5t-123.5 45.5q-116 0 -214.5 -93.5t-98.5 -208.5z" />
<glyph unicode="&#xb1;" d="M-63 31q0 31 31 31h793q31 0 31 -31t-31 -31h-793q-31 0 -31 31zM115 691q0 31 30 31h374l99 374q6 23 29 23q32 0 32 -30q0 -5 -97 -367h356q31 0 31 -31t-31 -30h-372l-100 -374q-6 -23 -29 -23q-32 0 -32 30q0 5 97 367h-357q-31 0 -30 30z" />
<glyph unicode="&#xb2;" horiz-adv-x="650" d="M70 523q0 18 20 30l504 300q48 28 78 82.5t30 109.5q0 67 -49 107q-46 37 -114 37q-102 0 -172 -59q-55 -47 -108 -150q-11 -23 -29 -23q-32 0 -32 30q0 2 2 10q17 106 125 182q102 72 214 72q94 0 158 -56q67 -58 67 -150q0 -115 -102 -215q-75 -74 -222 -155l-222 -118 h383q31 0 31 -31t-31 -31h-495q-36 0 -36 28z" />
<glyph unicode="&#xb3;" horiz-adv-x="662" d="M68 516q0 29 32 29q11 0 32 -32q28 -41 56 -62q45 -33 113 -33q115 0 214 85q104 88 104 201q0 75 -54 120q-51 41 -128 41q-55 0 -135 -37.5t-78 -37.5q-31 0 -31 32q0 16 15 25l491 342h-411q-31 0 -31 31t31 31h508q36 0 36 -27q0 -22 -181 -148q-111 -75 -221 -149h7 q104 2 174 -59t70 -164q0 -139 -122 -245q-117 -102 -258 -102q-78 0 -141 37q-69 41 -90 111q-2 6 -2 11z" />
<glyph unicode="&#xb4;" horiz-adv-x="414" d="M221 1089q0 19 19 27q307 135 313 135q30 0 30 -32q0 -19 -18 -27q-307 -135 -314 -135q-30 0 -30 32z" />
<glyph unicode="&#xb5;" horiz-adv-x="859" d="M-78 -366q0 9 61 237l237 879q6 28 22 82q9 23 29 22q32 0 32 -30q0 -5 -27 -110q-41 -144 -116 -433q-9 -35 -8 -55q0 -75 48 -119.5t124 -44.5q94 0 182.5 66.5t116.5 156.5q8 27 105 388q15 64 43 159q10 23 29 22q32 0 32 -30q0 -8 -41 -159q-41 -155 -130 -484 q-14 -61 -44 -158q-9 -23 -28 -23q-33 0 -32 30q0 5 18 75q-113 -105 -251 -105q-147 0 -208 117l-91 -336q-14 -63 -42 -154q-10 -23 -29 -23q-32 0 -32 30z" />
<glyph unicode="&#xb6;" horiz-adv-x="900" d="M177 887q0 137 118 250.5t256 113.5h398q31 0 31 -29q0 -24 -151 -591q-152 -571 -169 -608q-11 -23 -29 -23q-32 0 -32 30q0 12 70 274l239 885h-332q-36 -144 -210 -790l-76 -277q-6 -33 -27 -99q-9 -23 -29 -23q-32 0 -31 30q0 33 74 302q47 166 93 331 q-86 13 -139.5 75t-53.5 149zM239 887q0 -66 40.5 -111t106.5 -52l125 462q-106 -18 -188 -104q-85 -89 -84 -195z" />
<glyph unicode="&#xb7;" d="M432 518q0 29 22.5 49.5t51.5 20.5q58 1 58 -53q0 -29 -23 -51.5t-52 -22.5q-57 0 -57 57z" />
<glyph unicode="&#xb8;" horiz-adv-x="521" d="M-141 -265q0 30 32 30q10 0 44 -50t100 -50q84 0 155.5 67.5t71.5 151.5q0 62 -39 90q-18 11 -73 26q-40 11 -40 31q0 31 31 31q78 0 130.5 -50t52.5 -128q0 -109 -90 -194.5t-199 -85.5q-58 0 -114 36q-62 41 -62 95z" />
<glyph unicode="&#xb9;" horiz-adv-x="480" d="M137 526q0 34 72 34q12 0 34.5 -1t33.5 -2q26 107 156 582q-173 -136 -194 -136q-32 0 -32 33q0 17 129 116.5t150 99.5q32 0 32 -33q0 -17 -39 -161q-47 -166 -138 -501q8 1 29 1q18 2 29 2q64 0 64 -34q0 -31 -30 -31h-265q-31 0 -31 31z" />
<glyph unicode="&#xba;" horiz-adv-x="747" d="M46 427q0 31 31 31h594q31 0 31 -31t-31 -31h-594q-31 0 -31 31zM174 875q0 151 133 265q128 111 280 111q109 0 184 -64q78 -69 78 -177q0 -151 -132 -265q-127 -111 -279 -111q-110 0 -185 65q-78 68 -79 176zM236 875q0 -83 61 -132q56 -47 141 -47q127 0 236 92 q113 97 113 222q0 83 -60 132q-56 47 -140 47q-127 0 -236 -92q-115 -97 -115 -222z" />
<glyph unicode="&#xbb;" horiz-adv-x="679" d="M-62 31q0 21 302 403q-22 85 -63 257q-26 112 -26 133q0 30 31 30q18 0 29 -23t52.5 -202.5t41.5 -201.5q0 -15 -12 -24q-56 -91 -182 -250q-37 -48 -117 -141q-12 -13 -24 -13q-32 0 -32 32zM269 31q0 21 302 403q-22 85 -64 257q-26 112 -26 133q0 30 32 30 q18 0 28.5 -23t52 -202.5t41.5 -201.5q0 -15 -11 -24q-56 -91 -183 -250q-37 -48 -117 -141q-12 -13 -24 -13q-32 0 -31 32z" />
<glyph unicode="&#xbc;" horiz-adv-x="1527" d="M125 32q0 12 12 23q98 88 808 643q706 554 720 554q31 0 31 -33q0 -12 -13 -23q-97 -88 -805.5 -642.5t-720.5 -554.5q-32 0 -32 33zM137 526q0 34 72 34q12 0 34.5 -1t33.5 -2q26 107 156 582q-173 -136 -194 -136q-32 0 -32 33q0 17 129 116.5t150 99.5q32 0 32 -33 q0 -17 -39 -161q-47 -166 -138 -501q8 1 29 1q18 2 29 2q64 0 64 -34q0 -31 -30 -31h-265q-31 0 -31 31zM793 165q0 17 254 278q233 239 303 303q14 13 28 13q26 0 26 -30q0 -23 -30 -137q-4 -14 -107 -392h155q31 0 31 -31t-31 -31h-173q-18 -90 -70 -254q-10 -23 -29 -23 q-33 0 -32 30q0 17 63 247h-354q-34 0 -34 27zM900 200h297l115 419z" />
<glyph unicode="&#xbd;" horiz-adv-x="1660" d="M125 32q0 12 12 23q98 88 808 643q706 554 720 554q31 0 31 -33q0 -12 -13 -23q-97 -88 -805.5 -642.5t-720.5 -554.5q-32 0 -32 33zM137 526q0 34 72 34q12 0 34.5 -1t33.5 -2q26 107 156 582q-173 -136 -194 -136q-32 0 -32 33q0 17 129 116.5t150 99.5q32 0 32 -33 q0 -17 -39 -161q-47 -166 -138 -501q8 1 29 1q18 2 29 2q64 0 64 -34q0 -31 -30 -31h-265q-31 0 -31 31zM947 28q0 18 19 29l505 300q47 28 77.5 82.5t30.5 110.5q0 67 -49 106q-46 37 -114 37q-102 0 -171 -59q-55 -46 -109 -149q-12 -23 -29 -23q-32 0 -31 30v9 q17 106 126 183q102 71 214 71q93 0 157 -55q67 -58 67 -150q0 -115 -101 -216q-74 -74 -222 -155q-111 -58 -222 -117h383q31 0 31 -31t-31 -31h-496q-35 0 -35 28z" />
<glyph unicode="&#xbe;" horiz-adv-x="1705" d="M68 516q0 29 32 29q11 0 32 -32q28 -41 56 -62q45 -33 113 -33q115 0 214 85q104 88 104 201q0 75 -54 120q-51 42 -128 42q-55 0 -135 -38t-78 -38q-31 0 -31 32q0 16 15 25l491 342h-411q-31 0 -31 31t31 31h508q36 0 36 -27q0 -22 -181 -148q-111 -75 -221 -149l7 1 q104 1 174 -60t70 -164q0 -139 -122 -245q-117 -102 -258 -102q-78 0 -141 37q-69 41 -90 111q-2 6 -2 11zM303 32q0 12 12 23q98 88 808 643q706 554 720 554q31 0 31 -33q0 -12 -13 -23q-97 -88 -805.5 -642.5t-720.5 -554.5q-32 0 -32 33zM927 145q0 16 276 288 q234 229 325 313q14 13 28 13q26 0 26 -30q0 -23 -30 -137q-4 -14 -107 -392h155q30 0 30 -31t-30 -31h-173q-18 -90 -70 -254q-10 -23 -29 -23q-33 0 -32 30q0 17 63 247h-354l-24 -2t-37 0q-18 1 -17 9zM1079 200h296l115 419z" />
<glyph unicode="&#xbf;" horiz-adv-x="681" d="M-106 -170q0 141 118 253q115 111 258 111q69 0 127 54.5t58 122.5q0 92 -96 91q-16 0 -45 -11t-45 -11q-30 0 -30 32q0 26 49 41q37 11 71 11q67 0 112 -43t45 -110q0 -93 -76 -166t-170 -73q-116 0 -215 -93.5t-99 -208.5q0 -74 49 -119.5t123 -45.5q113 0 189 72 q56 52 116 170q11 23 29 23q32 0 32 -30q0 -1 -1 -9q-19 -117 -134 -204q-110 -84 -231 -83q-100 0 -167 63t-67 163zM372 781q0 29 23 51t52 22q57 0 57 -56q0 -29 -23 -50t-52 -21q-57 -1 -57 54z" />
<glyph unicode="&#xc0;" horiz-adv-x="1339" d="M-63 31q0 16 423 568q410 536 494 636q14 17 28 17q24 0 31 -29.5t19 -85.5q63 -261 186 -781q21 -83 43 -166q28 -114 28 -160q0 -30 -32 -30q-19 0 -29 24q-8 33 -23 98l-65 274h-748l-207 -267q-27 -37 -55 -74q-43 -55 -60 -56q-33 0 -33 32zM340 458h685 q-55 230 -159 690q-122 -170 -526 -690zM786 1615q0 33 30 33q12 0 119 -62q98 -55 126 -75q15 -11 15 -26q0 -33 -30 -32q-12 0 -118 61q-98 55 -126 76q-16 11 -16 25z" />
<glyph unicode="&#xc1;" horiz-adv-x="1339" d="M-63 31q0 16 423 568q410 536 494 636q14 17 28 17q24 0 31 -29.5t19 -85.5q63 -261 186 -781q21 -83 43 -166q28 -114 28 -160q0 -30 -32 -30q-19 0 -29 24q-8 33 -23 98l-65 274h-748l-207 -267q-27 -37 -55 -74q-43 -55 -60 -56q-33 0 -33 32zM340 458h685 q-55 230 -159 690q-122 -170 -526 -690zM750 1485q0 19 19 27q307 135 313 135q30 0 30 -32q0 -19 -19 -27q-307 -135 -313 -135q-30 0 -30 32z" />
<glyph unicode="&#xc2;" horiz-adv-x="1339" d="M-63 31q0 15 424 569q417 545 493 635q15 17 28 17q22 0 31 -31q21 -93 64 -279q47 -196 141 -586q22 -81 45 -162q26 -98 26 -164q0 -30 -32 -30q-19 0 -29 24q-8 33 -23 98l-65 274h-748l-207 -267q-27 -37 -55 -74q-43 -56 -60 -56q-33 0 -33 32zM340 458h685 q-55 230 -159 690q-124 -173 -526 -690zM670 1485q0 13 17 26q19 16 128 76.5t120 60.5q18 0 106 -73.5t88 -89.5q0 -33 -31 -32q-22 0 -166 126q-212 -126 -231 -126q-31 0 -31 32z" />
<glyph unicode="&#xc3;" horiz-adv-x="1339" d="M-63 31q0 16 423 568q410 536 494 636q14 17 28 17q24 0 31 -29.5t19 -85.5q63 -261 186 -781q21 -83 43 -166q28 -114 28 -160q0 -30 -32 -30q-19 0 -29 24q-8 33 -23 98l-65 274h-748l-207 -267q-27 -37 -55 -74q-43 -55 -60 -56q-33 0 -33 32zM340 458h685 q-55 230 -159 690q-122 -170 -526 -690zM635 1549q0 42 72 74q60 25 110 24q65 0 127 -66t102 -66q53 0 101 33t47 33q33 0 33 -30q0 -42 -72 -73q-60 -25 -109 -25q-65 0 -127.5 66.5t-101.5 66.5q-53 0 -102 -33.5t-47 -33.5q-33 0 -33 30z" />
<glyph unicode="&#xc4;" horiz-adv-x="1339" d="M-63 31q0 16 423 568q410 536 494 636q14 17 28 17q24 0 31 -29.5t19 -85.5q63 -261 186 -781q21 -83 43 -166q28 -114 28 -160q0 -30 -32 -30q-19 0 -29 24q-8 33 -23 98l-65 274h-748l-207 -267q-27 -37 -55 -74q-43 -55 -60 -56q-33 0 -33 32zM340 458h685 q-55 230 -159 690q-122 -170 -526 -690zM699 1508q0 29 22 51t52 22q56 1 56 -54q0 -29 -22.5 -51.5t-51.5 -22.5q-56 0 -56 55zM1095 1508q0 29 22 51t52 22q56 1 56 -54q0 -29 -22.5 -51.5t-51.5 -22.5q-56 0 -56 55z" />
<glyph unicode="&#xc5;" horiz-adv-x="1339" d="M-63 31q0 16 423 568q410 536 494 636q14 17 28 17q24 0 31 -29.5t19 -85.5q63 -261 186 -781q21 -83 43 -166q28 -114 28 -160q0 -30 -32 -30q-19 0 -29 24q-8 33 -23 98l-65 274h-748l-207 -267q-27 -37 -55 -74q-43 -55 -60 -56q-33 0 -33 32zM340 458h685 q-55 230 -159 690q-122 -170 -526 -690zM795 1461q0 74 60 131.5t134 57.5q54 0 91 -35t37 -89q0 -74 -60 -129.5t-134 -55.5q-54 0 -91 33.5t-37 86.5zM857 1461q0 -59 66 -59q48 0 90 38t42 86q0 63 -66 62q-48 0 -90 -39t-42 -88z" />
<glyph unicode="&#xc6;" horiz-adv-x="1604" d="M-63 31q0 11 10 21l1111 1189q10 11 22 11l661 -1q31 0 31 -31t-31 -31h-636l-143 -533h488q31 0 31 -31t-31 -30h-505l-143 -533h621q31 0 30 -31q0 -31 -30 -31h-661q-31 0 -31 29q0 11 95 367h-473q-99 -108 -198 -217q-166 -180 -185 -180q-33 0 -33 32zM410 458h433 l175 650z" />
<glyph unicode="&#xc7;" horiz-adv-x="1167" d="M78 471q0 300 253 542q250 238 553 238q260 0 399 -187q6 -8 6 -18q0 -31 -33 -31q1 0 -52 45q-62 53 -126 84q-94 45 -194 45q-277 0 -509 -219q-236 -224 -236 -499q0 -184 122 -298q119 -111 305 -111q117 0 251 56q78 33 185 101q26 17 30 17q31 0 31 -32 q0 -13 -12 -23q-140 -125 -356 -168q53 -50 53 -129q0 -109 -89.5 -194.5t-199.5 -85.5q-58 0 -114 36q-63 41 -62 95q0 30 31 30q10 0 44.5 -50t100.5 -50q85 0 156 67.5t71 151.5q0 53 -34 84.5t-86 31.5q-212 0 -349 129q-139 132 -139 342z" />
<glyph unicode="&#xc8;" horiz-adv-x="899" d="M26 29q0 14 155 595q155 584 166.5 605.5t28.5 21.5h661q31 0 31 -31t-31 -31h-637l-143 -533h489q31 0 31 -31t-31 -30h-506l-142 -533h621q31 0 31 -31t-31 -31h-661q-32 0 -32 29zM650 1615q0 33 30 33q11 0 120 -62q104 -59 125 -75q16 -12 16 -26q0 -33 -30 -32 q-11 0 -120 61q-104 59 -126 76q-15 11 -15 25z" />
<glyph unicode="&#xc9;" horiz-adv-x="899" d="M26 29q0 14 155 595q155 584 166.5 605.5t28.5 21.5h661q31 0 31 -31t-31 -31h-637l-143 -533h489q31 0 31 -31t-31 -30h-506l-142 -533h621q31 0 31 -31t-31 -31h-661q-32 0 -32 29zM614 1485q0 19 19 27q307 135 313 135q30 0 30 -32q0 -19 -19 -27 q-307 -135 -312 -135q-31 0 -31 32z" />
<glyph unicode="&#xca;" horiz-adv-x="899" d="M26 29q0 14 155 595q155 584 166.5 605.5t28.5 21.5h661q31 0 31 -31t-31 -31h-637l-143 -533h489q31 0 31 -31t-31 -30h-506l-142 -533h621q31 0 31 -31t-31 -31h-661q-32 0 -32 29zM548 1485q0 13 17 26q19 16 128 76.5t120 60.5q18 0 106 -73.5t88 -89.5 q0 -33 -31 -32q-22 0 -166 126q-212 -126 -231 -126q-31 0 -31 32z" />
<glyph unicode="&#xcb;" horiz-adv-x="899" d="M26 29q0 14 155 595q155 584 166.5 605.5t28.5 21.5h661q31 0 31 -31t-31 -31h-637l-143 -533h489q31 0 31 -31t-31 -30h-506l-142 -533h621q31 0 31 -31t-31 -31h-661q-32 0 -32 29zM523 1508q0 29 22.5 51t51.5 22q57 1 57 -54q0 -29 -22.5 -51.5t-51.5 -22.5 q-56 0 -57 55zM920 1508q0 29 22.5 51t51.5 22q56 1 56 -54q0 -29 -22.5 -51.5t-51.5 -22.5q-56 0 -56 55z" />
<glyph unicode="&#xcc;" horiz-adv-x="325" d="M23 30q0 18 151 587q152 573 169 611q11 23 29 23q31 0 31 -30q0 -18 -150 -587q-152 -573 -169 -611q-10 -23 -29 -23q-32 0 -32 30zM318 1615q0 33 31 33q11 0 119 -62q105 -59 126 -75q16 -12 16 -26q0 -33 -31 -32q-11 0 -119 61q-105 59 -126 76q-16 11 -16 25z" />
<glyph unicode="&#xcd;" horiz-adv-x="325" d="M23 30q0 18 151 587q152 573 169 611q11 23 29 23q31 0 31 -30q0 -18 -150 -587q-152 -573 -169 -611q-10 -23 -29 -23q-32 0 -32 30zM283 1485q0 19 18 27q307 135 314 135q30 0 30 -32q0 -19 -19 -27q-307 -135 -313 -135q-30 0 -30 32z" />
<glyph unicode="&#xce;" horiz-adv-x="325" d="M26 30q0 18 151 587q152 573 169 611q10 23 28 23q33 0 33 -30q0 -18 -152 -587q-152 -573 -169 -611q-10 -23 -28 -23q-33 0 -32 30zM217 1485q0 13 16 26q20 16 128.5 76.5t120.5 60.5q18 0 106 -73.5t88 -89.5q0 -33 -31 -32q-22 0 -167 126q-213 -126 -230 -126 q-31 0 -31 32z" />
<glyph unicode="&#xcf;" horiz-adv-x="325" d="M26 30q0 18 150 587q152 573 169 611q10 23 29 23q32 0 32 -30q0 -18 -151 -587q-152 -573 -169 -611q-11 -23 -29 -23q-32 0 -31 30zM192 1508q0 29 22 51t51 22q57 1 57 -54q0 -29 -22.5 -51.5t-51.5 -22.5q-55 0 -56 55zM588 1508q0 29 22 51t52 22q57 1 57 -54 q0 -29 -23 -51.5t-52 -22.5q-55 0 -56 55z" />
<glyph unicode="&#xd0;" horiz-adv-x="1296" d="M53 625q0 31 31 31h173l110 409q10 56 44 163q11 23 30 23h397q211 0 348 -130q139 -131 139 -341q0 -300 -253 -542q-250 -238 -553 -238h-397q-31 0 -30 29q0 17 37 158q38 136 111 408h-156q-31 0 -31 30zM163 62h356q277 0 509 219q235 224 235 499q0 184 -121 298 q-118 111 -304 111h-373l-143 -533h158q31 0 31 -31t-31 -30h-174z" />
<glyph unicode="&#xd1;" horiz-adv-x="1256" d="M28 30q0 10 59 230q81 289 236 869q7 32 24 94q8 28 32 28q18 0 29 -21q60 -121 180 -361q131 -249 387 -751q51 198 197 736l70 259q8 39 31 115q10 23 29 23q32 0 32 -30q0 -10 -59 -230q-81 -289 -236 -869q-7 -32 -23 -94q-9 -28 -33 -28q-18 0 -29 21 q-59 121 -181 360q-130 249 -385 752q-52 -197 -198 -736l-70 -260q-8 -39 -31 -114q-9 -23 -29 -23q-32 0 -32 30zM633 1549q0 42 73 74q59 25 109 24q64 0 126.5 -66t101.5 -66q53 0 102 33t47 33q32 0 32 -30q0 -42 -72 -73q-59 -25 -109 -25q-64 0 -126.5 66.5 t-101.5 66.5q-53 0 -102.5 -33.5t-46.5 -33.5q-33 0 -33 30z" />
<glyph unicode="&#xd2;" horiz-adv-x="1342" d="M78 471q0 300 253 542q250 238 553 238q211 0 347 -130q140 -131 140 -341q0 -300 -253 -542q-250 -238 -552 -238q-211 0 -348 129q-140 132 -140 342zM139 471q0 -184 122 -298q119 -111 305 -111q277 0 508 219q235 224 235 499q0 184 -122 298q-118 111 -303 111 q-277 0 -509 -219q-236 -224 -236 -499zM839 1615q0 33 31 33q11 0 120 -62q104 -59 125 -75q16 -12 16 -26q0 -33 -31 -32q-11 0 -119 61q-104 59 -126 76q-16 11 -16 25z" />
<glyph unicode="&#xd3;" horiz-adv-x="1342" d="M78 471q0 300 253 542q250 238 553 238q211 0 347 -130q140 -131 140 -341q0 -300 -253 -542q-250 -238 -552 -238q-211 0 -348 129q-140 132 -140 342zM139 471q0 -184 122 -298q119 -111 305 -111q277 0 508 219q235 224 235 499q0 184 -122 298q-118 111 -303 111 q-277 0 -509 -219q-236 -224 -236 -499zM804 1485q0 19 20 27q306 135 312 135q30 0 30 -32q0 -19 -18 -27q-307 -135 -314 -135q-30 0 -30 32z" />
<glyph unicode="&#xd4;" horiz-adv-x="1342" d="M78 471q0 300 253 542q250 238 553 238q211 0 347 -130q140 -131 140 -341q0 -300 -253 -542q-250 -238 -552 -238q-211 0 -348 129q-140 132 -140 342zM139 471q0 -184 122 -298q119 -111 305 -111q277 0 508 219q235 224 235 499q0 184 -122 298q-118 111 -303 111 q-277 0 -509 -219q-236 -224 -236 -499zM725 1485q0 13 16 26q19 16 127 75q111 62 122 62q18 0 106 -73.5t88 -89.5q0 -33 -31 -32q-22 0 -166 126q-213 -126 -231 -126q-31 0 -31 32z" />
<glyph unicode="&#xd5;" horiz-adv-x="1342" d="M78 471q0 300 253 542q250 238 553 238q211 0 347 -130q140 -131 140 -341q0 -300 -253 -542q-250 -238 -552 -238q-211 0 -348 129q-140 132 -140 342zM139 471q0 -184 122 -298q119 -111 305 -111q277 0 508 219q235 224 235 499q0 184 -122 298q-118 111 -303 111 q-277 0 -509 -219q-236 -224 -236 -499zM690 1549q0 42 72 74q59 25 109 24q64 0 127 -66t102 -66q52 0 101.5 33t47.5 33q32 0 32 -30q0 -42 -72 -73q-60 -25 -109 -25q-65 0 -127.5 66.5t-101.5 66.5q-53 0 -101.5 -33.5t-47.5 -33.5q-33 0 -32 30z" />
<glyph unicode="&#xd6;" horiz-adv-x="1342" d="M78 471q0 300 253 542q250 238 553 238q211 0 347 -130q140 -131 140 -341q0 -300 -253 -542q-250 -238 -552 -238q-211 0 -348 129q-140 132 -140 342zM139 471q0 -184 122 -298q119 -111 305 -111q277 0 508 219q235 224 235 499q0 184 -122 298q-118 111 -303 111 q-277 0 -509 -219q-236 -224 -236 -499zM700 1508q0 29 22.5 51t51.5 22q57 1 57 -54q0 -29 -22.5 -51.5t-51.5 -22.5q-56 0 -57 55zM1097 1508q0 29 22.5 51t51.5 22q56 1 56 -54q0 -29 -22.5 -51.5t-51.5 -22.5q-56 0 -56 55z" />
<glyph unicode="&#xd7;" d="M85 148q0 11 12 23q55 55 159 135q84 64 168 127q-189 256 -190 275q0 31 33 31q11 0 24 -13q42 -46 97 -123q45 -63 89 -126q330 262 350 262q31 0 31 -33q0 -11 -12 -22q-55 -55 -160 -135q-84 -64 -167 -128q189 -256 189 -275q0 -31 -32 -31q-11 0 -24 14 q-42 46 -97 122q-45 63 -90 127q-330 -262 -350 -263q-31 0 -30 33z" />
<glyph unicode="&#xd8;" horiz-adv-x="1342" d="M-61 32q0 18 210 180q-71 113 -71 259q0 300 253 542q250 238 553 238q239 0 377 -160q206 161 217 161q32 0 32 -33q0 -18 -210 -180q70 -113 71 -259q0 -300 -253 -542q-250 -238 -552 -238q-239 0 -378 160q-207 -161 -218 -161q-31 0 -31 33zM139 471q0 -123 58 -220 q338 269 1015 802q-121 137 -328 136q-277 0 -509 -219q-236 -224 -236 -499zM237 198q121 -137 329 -136q277 0 508 219q235 224 235 499q0 123 -58 220q-336 -269 -1014 -802z" />
<glyph unicode="&#xd9;" horiz-adv-x="1033" d="M75 324q0 55 15 111l213 793q6 23 28 23q33 0 33 -30q-1 -5 -2 -9l-212 -793q-13 -48 -13 -95q0 -118 78 -191q76 -71 195 -71q159 0 295 111q130 107 178 262q33 106 151 563q15 79 62 230q10 23 28 23q33 0 33 -30q0 -7 -84 -315q-41 -163 -130 -487 q-54 -177 -200 -296q-152 -123 -333 -123q-145 0 -240 90.5t-95 233.5zM672 1615q0 33 30 33q11 0 120 -62q103 -59 125 -75q16 -12 16 -26q0 -33 -30 -32q-11 0 -120 61q-104 59 -126 76q-15 11 -15 25z" />
<glyph unicode="&#xda;" horiz-adv-x="1033" d="M75 324q0 55 15 111l213 793q6 23 28 23q33 0 33 -30q-1 -5 -2 -9l-212 -793q-13 -48 -13 -95q0 -118 78 -191q76 -71 195 -71q159 0 295 111q130 107 178 262q33 106 151 563q15 79 62 230q10 23 28 23q33 0 33 -30q0 -7 -84 -315q-41 -163 -130 -487 q-54 -177 -200 -296q-152 -123 -333 -123q-145 0 -240 90.5t-95 233.5zM636 1485q0 16 20 28t161 73t151 61q30 0 30 -32q0 -16 -19.5 -27.5t-160.5 -73t-151 -61.5q-31 0 -31 32z" />
<glyph unicode="&#xdb;" horiz-adv-x="1033" d="M75 324q0 55 15 111l213 793q6 23 28 23q33 0 33 -30q-1 -5 -2 -9l-212 -793q-13 -48 -13 -95q0 -118 78 -191q76 -71 195 -71q159 0 295 111q130 107 178 262q33 106 151 563q15 79 62 230q10 23 28 23q33 0 33 -30q0 -7 -84 -315q-41 -163 -130 -487 q-54 -177 -200 -296q-152 -123 -333 -123q-145 0 -240 90.5t-95 233.5zM570 1485q0 13 17 26q19 16 128 76.5t120 60.5q15 0 92 -62q67 -54 90 -78q12 -12 12 -23q0 -33 -31 -32q-22 0 -166 126q-213 -126 -231 -126q-31 0 -31 32z" />
<glyph unicode="&#xdc;" horiz-adv-x="1033" d="M75 324q0 55 15 111l213 793q6 23 28 23q33 0 33 -30q-1 -5 -2 -9l-212 -793q-13 -48 -13 -95q0 -118 78 -191q76 -71 195 -71q159 0 295 111q130 107 178 262q33 106 151 563q15 79 62 230q10 23 28 23q33 0 33 -30q0 -7 -84 -315q-41 -163 -130 -487 q-54 -177 -200 -296q-152 -123 -333 -123q-145 0 -240 90.5t-95 233.5zM545 1508q0 29 22.5 51t51.5 22q57 1 57 -54q0 -29 -22.5 -51.5t-51.5 -22.5q-56 0 -57 55zM942 1508q0 29 22.5 51t51.5 22q56 1 56 -54q0 -29 -22.5 -51.5t-51.5 -22.5q-56 0 -56 55z" />
<glyph unicode="&#xdd;" horiz-adv-x="1032" d="M256 1221q0 30 33 30q15 0 26 -17q11 -20 31 -60l67 -129q64 -122 187 -368l592 565q10 10 21 10q32 0 32 -32q0 -12 -11 -22l-616 -589q-18 -75 -104 -396l-38 -139q-4 -18 -14 -51q-11 -23 -29 -23q-32 0 -32 30q0 8 33 132q23 86 124 460q-302 583 -302 599zM658 1485 q0 16 19.5 28t161 73t151.5 61q30 0 30 -32q0 -16 -18 -27q-21 -12 -162 -73q-143 -62 -152 -62q-30 0 -30 32z" />
<glyph unicode="&#xde;" horiz-adv-x="1035" d="M28 30q0 9 61 236l237 881q6 27 22 81q10 23 29 23q32 0 32 -30q0 -9 -43 -168h355q144 0 239 -89q96 -92 96 -236q0 -205 -171 -367.5t-376 -162.5h-372l-48 -175q-6 -23 -29 -23q-32 0 -32 30zM153 260h356q180 0 332.5 144t152.5 324q0 118 -77 190.5t-196 72.5h-371z " />
<glyph unicode="&#xdf;" horiz-adv-x="953" d="M-78 -366q0 32 41 177q28 97 55 193q82 325 262 971q35 115 132 194q100 82 219 82q88 0 146.5 -56t58.5 -143q0 -106 -71 -188q-66 -60 -131 -120q-71 -65 -71 -128q0 -92 100 -92q90 0 149.5 -56.5t59.5 -145.5q0 -126 -103.5 -224t-228.5 -98q-78 0 -140 48 q-67 53 -67 128q0 34 31 35q17 0 32 -39q19 -51 38 -72q36 -39 106 -38q100 0 185 80.5t85 179.5q0 66 -45 105q-43 35 -110 35t-110.5 44.5t-43.5 109.5q0 84 72 155q65 58 131 116q70 73 70 165q0 62 -40.5 99.5t-102.5 37.5q-194 0 -291 -231l-2 -2q-82 -311 -248 -934 l-76 -277l-18 -82q-17 -59 -43 -59q-32 0 -31 30z" />
<glyph unicode="&#xe0;" horiz-adv-x="946" d="M23 292q0 215 195 391q189 172 407 171q69 0 158 -30q114 -36 114 -88q0 -10 -92 -352q-91 -344 -99 -361q-11 -23 -29 -23q-33 0 -32 30q0 10 33 133q-157 -163 -354 -163q-130 0 -215.5 81t-85.5 211zM85 292q0 -103 67 -166.5t172 -63.5q110 0 216 67q102 64 159 163 q26 46 66 196l66 239q-70 66 -206 66q-141 0 -275 -85q-127 -81 -201 -207q-64 -112 -64 -209zM567 1219q0 33 30 33q11 0 120 -62q104 -59 126 -76q16 -11 16 -25q0 -33 -31 -33q-11 0 -120 62q-103 59 -125 76q-16 11 -16 25z" />
<glyph unicode="&#xe1;" horiz-adv-x="946" d="M23 292q0 215 195 391q189 172 407 171q69 0 158 -30q114 -36 114 -88q0 -10 -92 -352q-91 -344 -99 -361q-11 -23 -29 -23q-33 0 -32 30q0 10 33 133q-157 -163 -354 -163q-130 0 -215.5 81t-85.5 211zM85 292q0 -103 67 -166.5t172 -63.5q110 0 216 67q102 64 159 163 q26 46 66 196l66 239q-70 66 -206 66q-141 0 -275 -85q-127 -81 -201 -207q-64 -112 -64 -209zM532 1089q0 16 19.5 27.5t161 73t151.5 61.5q30 0 30 -32q0 -16 -20 -28t-160 -72q-143 -62 -152 -62q-30 0 -30 32z" />
<glyph unicode="&#xe2;" horiz-adv-x="946" d="M23 292q0 215 195 391q189 172 407 171q69 0 158 -30q114 -36 114 -88q0 -10 -92 -352q-91 -344 -99 -361q-11 -23 -29 -23q-33 0 -32 30q0 10 33 133q-157 -163 -354 -163q-130 0 -215.5 81t-85.5 211zM85 292q0 -103 67 -166.5t172 -63.5q110 0 216 67q102 64 159 163 q26 46 66 196l66 239q-70 66 -206 66q-141 0 -275 -85q-127 -81 -201 -207q-64 -112 -64 -209zM466 1089q0 13 16 25q20 16 127 76q110 62 121 62q15 0 92 -62q68 -54 91 -78q12 -12 12 -23q0 -33 -32 -33q-21 0 -165 126q-213 -126 -232 -126q-30 0 -30 33z" />
<glyph unicode="&#xe3;" horiz-adv-x="946" d="M23 292q0 215 195 391q189 172 407 171q69 0 158 -30q114 -36 114 -88q0 -10 -92 -352q-91 -344 -99 -361q-11 -23 -29 -23q-33 0 -32 30q0 10 33 133q-157 -163 -354 -163q-130 0 -215.5 81t-85.5 211zM85 292q0 -103 67 -166.5t172 -63.5q110 0 216 67q102 64 159 163 q26 46 66 196l66 239q-70 66 -206 66q-141 0 -275 -85q-127 -81 -201 -207q-64 -112 -64 -209zM418 1153q0 42 71 73q60 25 109 25q65 0 127 -66t102 -66q53 0 102 33t47 33q33 0 33 -30q0 -42 -73 -73q-59 -25 -109 -25q-65 0 -127 66t-102 66q-52 0 -101.5 -33t-47.5 -33 q-32 0 -31 30z" />
<glyph unicode="&#xe4;" horiz-adv-x="946" d="M23 292q0 215 195 391q189 172 407 171q69 0 158 -30q114 -36 114 -88q0 -10 -92 -352q-91 -344 -99 -361q-11 -23 -29 -23q-33 0 -32 30q0 10 33 133q-157 -163 -354 -163q-130 0 -215.5 81t-85.5 211zM85 292q0 -103 67 -166.5t172 -63.5q110 0 216 67q102 64 159 163 q26 46 66 196l66 239q-70 66 -206 66q-141 0 -275 -85q-127 -81 -201 -207q-64 -112 -64 -209zM441 1112q0 29 22 51t51 22q58 0 58 -55q0 -29 -23 -51t-52 -22q-55 0 -56 55zM838 1112q0 29 22 51t51 22q57 0 57 -55q0 -29 -23 -51t-52 -22q-55 0 -55 55z" />
<glyph unicode="&#xe5;" horiz-adv-x="946" d="M23 292q0 215 195 391q189 172 407 171q69 0 158 -30q114 -36 114 -88q0 -10 -92 -352q-91 -344 -99 -361q-11 -23 -29 -23q-33 0 -32 30q0 10 33 133q-157 -163 -354 -163q-130 0 -215.5 81t-85.5 211zM85 292q0 -103 67 -166.5t172 -63.5q110 0 216 67q102 64 159 163 q26 46 66 196l66 239q-70 66 -206 66q-141 0 -275 -85q-127 -80 -201 -207q-64 -112 -64 -209zM543 1087q0 74 60 131t134 57q54 0 90.5 -35t36.5 -89q0 -74 -59.5 -129.5t-134.5 -55.5q-54 0 -90.5 34t-36.5 87zM604 1087q0 -59 66 -59q49 0 90.5 37.5t41.5 85.5 q0 63 -65 63q-48 0 -90.5 -39.5t-42.5 -87.5z" />
<glyph unicode="&#xe6;" horiz-adv-x="1439" d="M23 292q0 215 195 391q189 172 407 171q69 0 158 -30q114 -37 114 -88q0 -11 -20 -76q176 195 408 194q74 0 123 -46.5t49 -120.5q0 -148 -159 -235q-199 -108 -478 -238q65 -152 253 -152q51 0 130 25q61 20 66 20q31 0 31 -32q0 -33 -99 -57q-78 -18 -128 -18 q-109 0 -193 53q-89 56 -123 156l-51 -186q-6 -23 -29 -23q-33 0 -32 30q0 9 33 133q-157 -163 -354 -163q-130 0 -215.5 81t-85.5 211zM85 292q0 -103 67 -166.5t172 -63.5q110 0 216 67q102 64 159 163q26 46 66 196l66 239q-70 66 -206 66q-141 0 -275 -85 q-127 -81 -201 -207q-64 -112 -64 -209zM799 324q0 -26 4 -50l467 233q125 63 125 180q0 78 -80 100q-18 4 -25 6q-183 0 -335 -142q-156 -145 -156 -327z" />
<glyph unicode="&#xe7;" horiz-adv-x="828" d="M32 324q0 205 171 369q170 161 376 161q181 0 274 -128q7 -9 7 -19q0 -31 -33 -30q-3 0 -39 29q-42 36 -82 57q-61 30 -127 30q-180 0 -331 -144q-154 -145 -155 -325q0 -118 77.5 -190t195.5 -72q82 0 203 58t108 58q31 0 31 -33q0 -31 -92 -77q-71 -35 -124 -50 q58 -51 58 -134q0 -108 -90 -194t-199 -86q-58 0 -115 36q-63 41 -62 95q0 30 32 30q10 0 44 -50t101 -50q84 0 155.5 68t71.5 151q0 53 -34 84.5t-88 31.5q-145 0 -239.5 90t-94.5 234z" />
<glyph unicode="&#xe8;" horiz-adv-x="733" d="M32 324q0 205 171 369q170 161 376 161q74 0 123 -46.5t49 -120.5q0 -147 -159 -235q-10 -5 -186 -94l-291 -144q64 -152 251 -152q48 0 121 22.5t77 22.5q30 0 30 -32q0 -33 -99 -57q-77 -18 -129 -18q-144 0 -239 90.5t-95 233.5zM93 324q0 -26 4 -50l468 233 q125 63 125 180q0 78 -75 99q-21 6 -31 7q-182 0 -335 -142q-156 -145 -156 -327zM521 1219q0 33 31 33q11 0 120 -62q103 -59 125 -76q16 -11 16 -25q0 -33 -30 -33q-11 0 -120 62q-104 59 -126 76q-16 11 -16 25z" />
<glyph unicode="&#xe9;" horiz-adv-x="733" d="M32 324q0 205 171 369q170 161 376 161q74 0 123 -46.5t49 -120.5q0 -147 -159 -235q-10 -5 -186 -94l-291 -144q64 -152 251 -152q48 0 121 22.5t77 22.5q30 0 30 -32q0 -33 -99 -57q-77 -18 -129 -18q-144 0 -239 90.5t-95 233.5zM93 324q0 -26 4 -50l468 233 q125 63 125 180q0 78 -75 99q-21 6 -31 7q-182 0 -335 -142q-156 -145 -156 -327zM486 1089q0 16 20 27.5t161.5 73t150.5 61.5q30 0 30 -32q0 -16 -19 -28t-160.5 -73t-151.5 -61q-31 0 -31 32z" />
<glyph unicode="&#xea;" horiz-adv-x="746" d="M32 324q0 205 171 369q170 161 376 161q74 0 123 -46.5t49 -120.5q0 -147 -159 -235q-10 -5 -186 -94l-291 -144q64 -152 251 -152q48 0 121 22.5t77 22.5q30 0 30 -32q0 -33 -99 -57q-77 -18 -129 -18q-144 0 -239 90.5t-95 233.5zM93 324q0 -26 4 -50l468 233 q125 63 125 180q0 78 -75 99q-21 6 -31 7q-182 0 -335 -142q-156 -145 -156 -327zM420 1089q0 13 17 25q19 16 128 77t120 61q15 0 92 -62q67 -54 91 -78q11 -12 11 -23q0 -33 -31 -33q-22 0 -166 126q-213 -126 -231 -126q-31 0 -31 33z" />
<glyph unicode="&#xeb;" horiz-adv-x="746" d="M32 324q0 205 171 369q170 161 376 161q74 0 123 -46.5t49 -120.5q0 -147 -159 -235q-10 -5 -186 -94l-291 -144q64 -152 251 -152q48 0 121 22.5t77 22.5q30 0 30 -32q0 -33 -99 -57q-77 -18 -129 -18q-144 0 -239 90.5t-95 233.5zM93 324q0 -26 4 -50l468 233 q125 63 125 180q0 78 -75 99q-21 6 -31 7q-182 0 -335 -142q-156 -145 -156 -327zM396 1112q0 29 22 51t51 22q57 0 57 -55q0 -29 -22.5 -51t-51.5 -22q-56 0 -56 55zM792 1112q0 29 22.5 51t51.5 22q56 0 56 -55q0 -29 -22.5 -51t-51.5 -22q-56 0 -56 55z" />
<glyph unicode="&#xec;" horiz-adv-x="325" d="M26 30q1 5 1 9l213 793q6 23 29 22q31 0 31 -30q-1 -5 -1 -8l-213 -793q-6 -23 -29 -23q-32 0 -31 30zM212 1219q0 33 30 33q11 0 120 -62q104 -59 125 -76q16 -11 16 -25q0 -33 -30 -33q-11 0 -120 62q-103 59 -125 76q-16 11 -16 25z" />
<glyph unicode="&#xed;" horiz-adv-x="325" d="M26 30q1 5 1 9l213 793q6 23 29 22q31 0 31 -30q-1 -5 -1 -8l-213 -793q-6 -23 -29 -23q-32 0 -31 30zM177 1089q0 16 19.5 27.5t161 73t150.5 61.5q30 0 30 -32q0 -16 -19.5 -28t-160.5 -73t-151 -61q-30 0 -30 32z" />
<glyph unicode="&#xee;" horiz-adv-x="325" d="M26 30q1 5 1 9l213 793q6 23 29 22q31 0 31 -30q0 -5 -1 -8l-213 -793q-6 -23 -28 -23q-33 0 -32 30zM111 1089q0 13 16 25q20 16 127 76q110 62 121 62q15 0 92 -62q68 -54 91 -78q12 -12 12 -23q0 -33 -32 -33q-21 0 -165 126q-213 -126 -232 -126q-30 0 -30 33z" />
<glyph unicode="&#xef;" horiz-adv-x="325" d="M26 30v9l213 793q6 23 29 22q31 0 31 -30v-8l-213 -793q-6 -23 -29 -23q-32 0 -31 30zM85 1112q0 29 22 51t52 22q57 0 57 -55q0 -29 -22.5 -51t-52.5 -22q-55 0 -56 55zM482 1112q0 29 22 51t52 22q56 0 56 -55q0 -29 -22.5 -51t-52.5 -22q-55 0 -55 55z" />
<glyph unicode="&#xf0;" horiz-adv-x="946" d="M32 324q0 205 171 369q170 161 376 161q61 0 114 -16q-100 134 -163 219h-210q-31 0 -31 31t31 31h166q-64 90 -64 101q0 32 33 32q14 0 113 -133h412q31 0 31 -31t-31 -31h-365q81 -109 238 -331q62 -92 61 -196q0 -205 -172 -369q-169 -161 -376 -161q-144 0 -239 90.5 t-95 233.5zM93 324q0 -118 77.5 -190t195.5 -72q181 0 334 144t153 324q0 118 -77 190.5t-197 72.5q-180 0 -331 -144q-154 -145 -155 -325z" />
<glyph unicode="&#xf1;" horiz-adv-x="814" d="M27 30q0 7 33 129q37 137 111 408l70 265q6 23 29 22q32 0 32 -30q0 -8 -19 -75q117 106 253 105q100 0 166.5 -63t66.5 -163q0 -37 -11 -76q-33 -124 -98 -372q-11 -56 -43 -157q-11 -23 -29 -23q-33 0 -32 30q0 8 31 123l74 275q47 167 46 200q0 74 -48.5 119.5 t-122.5 45.5q-168 0 -270 -168q-14 -24 -36 -74q-6 -23 -101 -375q-11 -53 -41 -153q-8 -23 -28 -23q-33 0 -33 30zM329 1153q0 42 71 73q60 25 109 25q65 0 127.5 -66t101.5 -66q53 0 102 33t47 33q33 0 33 -30q0 -42 -73 -73q-59 -25 -109 -25q-65 0 -127 66t-102 66 q-52 0 -101 -33t-48 -33q-32 0 -31 30z" />
<glyph unicode="&#xf2;" horiz-adv-x="946" d="M32 324q0 205 171 369q170 161 376 161q145 0 239 -89q96 -91 96 -235q0 -205 -172 -369q-169 -161 -376 -161q-144 0 -239 90.5t-95 233.5zM93 324q0 -118 77.5 -190t195.5 -72q181 0 334 144t153 324q0 118 -77 190.5t-197 72.5q-180 0 -331 -144q-154 -145 -155 -325z M522 1219q0 33 30 33q11 0 120 -62q103 -59 125 -76q16 -11 16 -25q0 -33 -30 -33q-11 0 -120 62q-104 59 -126 76q-15 11 -15 25z" />
<glyph unicode="&#xf3;" horiz-adv-x="946" d="M32 324q0 205 171 369q170 161 376 161q145 0 239 -89q96 -91 96 -235q0 -205 -172 -369q-169 -161 -376 -161q-144 0 -239 90.5t-95 233.5zM93 324q0 -118 77.5 -190t195.5 -72q181 0 334 144t153 324q0 118 -77 190.5t-197 72.5q-180 0 -331 -144q-154 -145 -155 -325z M486 1089q0 16 20 27.5t161.5 73t150.5 61.5q30 0 30 -32q0 -16 -19 -28t-160.5 -73t-151.5 -61q-31 0 -31 32z" />
<glyph unicode="&#xf4;" horiz-adv-x="946" d="M32 324q0 205 171 369q170 161 376 161q145 0 239 -89q96 -91 96 -235q0 -205 -172 -369q-169 -161 -376 -161q-144 0 -239 90.5t-95 233.5zM93 324q0 -118 77.5 -190t195.5 -72q181 0 334 144t153 324q0 118 -77 190.5t-197 72.5q-180 0 -331 -144q-154 -145 -155 -325z M420 1089q0 13 17 25q19 16 128 77t120 61q15 0 92 -62q67 -54 91 -78q11 -12 11 -23q0 -33 -31 -33q-22 0 -166 126q-213 -126 -231 -126q-31 0 -31 33z" />
<glyph unicode="&#xf5;" horiz-adv-x="946" d="M32 324q0 205 171 369q170 161 376 161q145 0 239 -89q96 -91 96 -235q0 -205 -172 -369q-169 -161 -376 -161q-144 0 -239 90.5t-95 233.5zM93 324q0 -118 77.5 -190t195.5 -72q181 0 334 144t153 324q0 118 -77 190.5t-197 72.5q-180 0 -331 -144q-154 -145 -155 -325z M372 1153q0 42 72 73q59 25 109 25q65 0 127.5 -66t101.5 -66q52 0 101.5 33t47.5 33q32 0 32 -30q0 -42 -72 -73q-60 -25 -109 -25q-65 0 -127 66t-102 66q-53 0 -101.5 -33t-47.5 -33q-33 0 -32 30z" />
<glyph unicode="&#xf6;" horiz-adv-x="946" d="M32 324q0 205 171 369q170 161 376 161q145 0 239 -89q96 -91 96 -235q0 -205 -172 -369q-169 -161 -376 -161q-144 0 -239 90.5t-95 233.5zM93 324q0 -118 77.5 -190t195.5 -72q181 0 334 144t153 324q0 118 -77 190.5t-197 72.5q-180 0 -331 -144q-154 -145 -155 -325z M396 1112q0 29 22 51t51 22q57 0 57 -55q0 -29 -22.5 -51t-51.5 -22q-56 0 -56 55zM792 1112q0 29 22.5 51t51.5 22q56 0 56 -55q0 -29 -22.5 -51t-51.5 -22q-56 0 -56 55z" />
<glyph unicode="&#xf7;" d="M203 526q0 31 30 31h529q31 0 31 -31t-31 -31h-529q-31 0 -30 31zM335 156q0 29 22.5 49.5t52.5 20.5q57 1 57 -53q0 -29 -23 -51.5t-52 -22.5q-57 0 -57 57zM529 883q0 29 22.5 49.5t52.5 20.5q58 0 58 -54q0 -29 -23 -51.5t-52 -22.5q-57 0 -58 58z" />
<glyph unicode="&#xf8;" horiz-adv-x="946" d="M-61 32q0 13 137 122q-44 75 -44 170q0 205 171 369q170 161 376 161q157 0 253 -102q133 103 144 103q31 1 31 -32q0 -14 -137 -123q44 -75 44 -170q0 -205 -172 -369q-169 -161 -376 -161q-157 0 -251 102q-134 -103 -145 -103q-31 0 -31 33zM93 324q0 -72 31 -130 q218 174 658 520q-78 78 -203 79q-180 0 -331 -144q-154 -145 -155 -325zM164 140q77 -78 202 -78q181 0 334 144t153 324q0 72 -32 131q-218 -174 -657 -521z" />
<glyph unicode="&#xf9;" horiz-adv-x="769" d="M45 226q0 36 10 76l103 386q10 50 39 144q11 23 29 22q32 0 32 -30q0 -8 -32 -130l-71 -261q-48 -174 -48 -207q0 -74 48 -119t123 -45q205 0 306 241l1 2q32 122 97 365q11 57 44 162q11 23 29 22q32 0 32 -30q0 -9 -39 -150l-104 -387q-34 -119 -138 -202 q-106 -85 -228 -85q-100 0 -166.5 63.5t-66.5 162.5zM434 1219q0 33 30 33q11 0 120 -62q104 -59 125 -76q16 -11 16 -25q0 -33 -30 -33q-11 0 -120 62q-104 59 -125 76q-16 11 -16 25z" />
<glyph unicode="&#xfa;" horiz-adv-x="769" d="M45 226q0 36 10 76l103 386q10 50 39 144q11 23 29 22q32 0 32 -30q0 -8 -32 -130l-71 -261q-48 -174 -48 -207q0 -74 48 -119t123 -45q205 0 306 241l1 2q32 122 97 365q11 57 44 162q11 23 29 22q32 0 32 -30q0 -9 -39 -150l-104 -387q-34 -119 -138 -202 q-106 -85 -228 -85q-100 0 -166.5 63.5t-66.5 162.5zM399 1089q0 16 19.5 27.5t161 73t150.5 61.5q30 0 30 -32q0 -16 -19.5 -28t-160.5 -73t-151 -61q-30 0 -30 32z" />
<glyph unicode="&#xfb;" horiz-adv-x="769" d="M45 226q0 36 10 76l103 386q10 50 39 144q11 23 29 22q32 0 32 -30q0 -8 -32 -130l-71 -261q-48 -174 -48 -207q0 -74 48 -119t123 -45q205 0 306 241l1 2q32 122 97 365q11 57 44 162q11 23 29 22q32 0 32 -30q0 -9 -39 -150l-104 -387q-34 -119 -138 -202 q-106 -85 -228 -85q-100 0 -166.5 63.5t-66.5 162.5zM333 1089q0 13 16 25q19 16 128 77t120 61q15 0 92 -62q68 -54 91 -78q12 -12 12 -23q0 -33 -32 -33q-22 0 -166 126q-212 -126 -231 -126q-30 0 -30 33z" />
<glyph unicode="&#xfc;" horiz-adv-x="769" d="M45 226q0 36 10 76l103 386q10 50 39 144q11 23 29 22q32 0 32 -30q0 -8 -32 -130l-71 -261q-48 -174 -48 -207q0 -74 48 -119t123 -45q205 0 306 241l1 2q32 122 97 365q11 57 44 162q11 23 29 22q32 0 32 -30q0 -9 -39 -150l-104 -387q-34 -119 -138 -202 q-106 -85 -228 -85q-100 0 -166.5 63.5t-66.5 162.5zM308 1112q0 29 22 51t51 22q58 0 58 -55q0 -29 -23 -51t-52 -22q-55 0 -56 55zM705 1112q0 29 22 51t51 22q57 0 57 -55q0 -29 -23 -51t-52 -22q-55 0 -55 55z" />
<glyph unicode="&#xfd;" horiz-adv-x="812" d="M-53 -233q0 30 33 30q11 0 32 -35q26 -43 51 -62q43 -34 109 -35q206 0 305 243q10 38 53 199q-114 -107 -252 -107q-100 0 -167 63.5t-67 162.5q0 38 67 302.5t85 303.5q12 23 30 22q32 0 31 -30q0 -8 -31 -123l-74 -275q-47 -166 -46 -200q0 -74 48.5 -119t123.5 -45 q100 0 191 74q88 71 115 170q33 122 97 364q11 55 44 162q11 23 29 22q32 0 32 -30q0 -18 -65 -258q-106 -396 -185 -675q-33 -119 -136 -203q-106 -85 -228 -84q-173 0 -223 152q-2 5 -2 11zM398 1089q0 16 19.5 27.5t161 73t151.5 61.5q30 0 30 -32q0 -16 -18 -27 q-21 -12 -162 -73q-143 -62 -152 -62q-30 0 -30 32z" />
<glyph unicode="&#xfe;" horiz-adv-x="946" d="M-78 -366q0 10 49 192l377 1402q6 23 29 23q32 0 32 -30q0 -21 -142 -532q156 166 357 165q130 0 215.5 -81t85.5 -210q0 -51 -13 -100q-55 -193 -221 -326q-170 -137 -368 -137q-134 0 -224 62l-117 -435q-6 -23 -29 -23q-32 0 -31 30zM116 127q70 -65 207 -65 q174 0 330.5 124t198.5 293q11 45 11 84q0 103 -67.5 166.5t-171.5 63.5q-143 0 -260 -98q-110 -92 -157 -232q-3 -7 -91 -336z" />
<glyph unicode="&#xff;" horiz-adv-x="812" d="M-53 -233q0 30 33 30q11 0 32 -35q26 -43 51 -62q43 -34 109 -35q206 0 305 243q10 38 53 199q-114 -107 -252 -107q-100 0 -167 63.5t-67 162.5q0 38 67 302.5t85 303.5q12 23 30 22q32 0 31 -30q0 -8 -31 -123l-74 -275q-47 -166 -46 -200q0 -74 48.5 -119t123.5 -45 q100 0 191 74q88 71 115 170q33 122 97 364q11 55 44 162q11 23 29 22q32 0 32 -30q0 -18 -65 -258q-106 -396 -185 -675q-33 -119 -136 -203q-106 -85 -228 -84q-173 0 -223 152q-2 5 -2 11zM304 1100q0 29 22.5 51t51.5 22q56 1 56 -54q0 -29 -22.5 -51t-51.5 -22 q-56 0 -56 54zM700 1100q0 29 22.5 51t51.5 22q57 1 57 -54q0 -29 -22.5 -51t-51.5 -22q-56 0 -57 54z" />
<glyph unicode="&#x152;" horiz-adv-x="2001" d="M78 471q0 300 253 542q250 238 553 238q174 0 303 -93q135 -96 171 -262l62 227q7 37 28 105q11 23 30 23h661q31 0 31 -31t-31 -31h-637l-143 -533h488q31 0 31 -31t-31 -30h-504l-2 -8l-141 -525h620q31 0 31 -31t-31 -31h-661q-31 0 -31 29q0 12 81 310 q-117 -151 -285 -242q-177 -97 -359 -97q-211 0 -347 129q-140 131 -140 342zM139 471q0 -184 122 -298q119 -111 304 -111q232 0 437.5 149t270.5 369q36 122 36 200q0 184 -121 298q-119 111 -304 111q-277 0 -509 -220q-236 -223 -236 -498zM1341 587l2 8h-1z" />
<glyph unicode="&#x153;" horiz-adv-x="1526" d="M32 324q0 204 170.5 367t376.5 163q127 0 216 -69q94 -73 114 -196q78 116 200 190q129 76 262 75q74 0 123.5 -46.5t49.5 -120.5q0 -146 -159 -235q-11 -5 -198 -100q-92 -48 -280 -138q64 -152 252 -152q73 0 183 42q9 4 15 3q30 0 29 -32q0 -33 -98 -57 q-77 -18 -129 -18q-126 0 -216 70q-93 73 -114 195q-78 -116 -200 -189q-128 -76 -263 -76q-144 0 -239 90.5t-95 233.5zM93 324q0 -118 77.5 -190t195.5 -72q181 0 334 144.5t153 323.5q0 118 -77 190.5t-197 72.5q-180 0 -331 -144q-154 -146 -155 -325zM886 324 q0 -26 4 -50l467 233q125 63 125 180q0 48 -31 77t-80 29q-180 0 -331 -144q-154 -146 -154 -325z" />
<glyph unicode="&#x178;" horiz-adv-x="1032" d="M256 1221q0 30 33 30q18 0 26 -17l285 -557l592 565q10 10 21 10q32 0 32 -32q0 -12 -11 -22l-616 -589q-18 -74 -104 -395l-38 -139q-4 -18 -14 -52q-11 -23 -29 -23q-32 0 -32 30q0 9 39 156q17 61 118 436q-302 583 -302 599zM566 1508q0 29 22.5 51t51.5 22 q57 1 57 -54q0 -29 -22.5 -51.5t-51.5 -22.5q-56 0 -57 55zM963 1508q0 29 22.5 51t51.5 22q56 1 56 -54q0 -29 -22.5 -51.5t-51.5 -22.5q-56 0 -56 55z" />
<glyph unicode="&#x2c6;" horiz-adv-x="547" d="M328 1485q0 14 16 26q24 18 126 75q107 60 120 59q15 0 22 -5l162 -132q13 -10 13 -23q0 -33 -32 -32q-11 0 -166 126q-222 -127 -231 -126q-30 0 -30 32z" />
<glyph unicode="&#x2dc;" horiz-adv-x="679" d="M344 1549q0 8 6 17q46 81 176 81q65 0 127 -66t102 -66q58 0 103 33t46 33q32 0 32 -30q0 -8 -5 -17q-46 -81 -176 -81q-65 0 -127 66.5t-102 66.5q-58 0 -103 -33.5t-46 -33.5q-33 0 -33 30z" />
<glyph unicode="&#x2000;" horiz-adv-x="825" />
<glyph unicode="&#x2001;" horiz-adv-x="1650" />
<glyph unicode="&#x2002;" horiz-adv-x="825" />
<glyph unicode="&#x2003;" horiz-adv-x="1650" />
<glyph unicode="&#x2004;" horiz-adv-x="550" />
<glyph unicode="&#x2005;" horiz-adv-x="412" />
<glyph unicode="&#x2006;" horiz-adv-x="275" />
<glyph unicode="&#x2007;" horiz-adv-x="275" />
<glyph unicode="&#x2008;" horiz-adv-x="206" />
<glyph unicode="&#x2009;" horiz-adv-x="330" />
<glyph unicode="&#x200a;" horiz-adv-x="91" />
<glyph unicode="&#x2010;" horiz-adv-x="546" d="M44 427q0 31 31 31h396q31 0 31 -31t-31 -31h-396q-31 0 -31 31z" />
<glyph unicode="&#x2011;" horiz-adv-x="546" d="M44 427q0 31 31 31h396q31 0 31 -31t-31 -31h-396q-31 0 -31 31z" />
<glyph unicode="&#x2012;" horiz-adv-x="546" d="M44 427q0 31 31 31h396q31 0 31 -31t-31 -31h-396q-31 0 -31 31z" />
<glyph unicode="&#x2013;" horiz-adv-x="678" d="M44 427q0 31 31 31h528q31 0 31 -31t-31 -31h-528q-31 0 -31 31z" />
<glyph unicode="&#x2014;" horiz-adv-x="1206" d="M44 427q0 31 31 31h1057q31 0 31 -31t-31 -31h-1057q-31 0 -31 31z" />
<glyph unicode="&#x2018;" horiz-adv-x="268" d="M187 955q0 4 1 9q53 195 202 297q11 7 20 7q31 1 31 -32q0 -11 -12 -24q-91 -91 -110 -118q-28 -40 -71 -146q-10 -23 -30 -23q-32 0 -31 30z" />
<glyph unicode="&#x2019;" horiz-adv-x="268" d="M181 940q0 11 13 24q90 91 109 118q28 40 72 146q9 23 29 23q32 0 32 -30q0 -4 -2 -9q-53 -195 -202 -298q-11 -7 -20 -7q-31 0 -31 33z" />
<glyph unicode="&#x201a;" horiz-adv-x="268" d="M-137 -249q0 11 12 23q91 91 110 119q28 40 71 146q10 23 29 23q32 0 32 -30q0 -4 -1 -9q-53 -195 -203 -298q-11 -7 -19 -7q-32 0 -31 33z" />
<glyph unicode="&#x201c;" horiz-adv-x="665" d="M187 955q0 4 1 9q53 195 202 297q11 7 20 7q31 1 31 -32q0 -11 -12 -24q-91 -91 -110 -118q-28 -40 -71 -146q-10 -23 -30 -23q-32 0 -31 30zM583 955q0 4 1 9q53 195 203 297q11 7 19 7q32 1 32 -32q0 -11 -13 -24q-91 -91 -110 -118q-28 -40 -71 -146q-10 -23 -29 -23 q-32 0 -32 30z" />
<glyph unicode="&#x201d;" horiz-adv-x="665" d="M181 940q0 11 13 24q90 91 109 118q28 40 72 146q9 23 29 23q32 0 32 -30q0 -4 -2 -9q-53 -195 -202 -298q-11 -7 -20 -7q-31 0 -31 33zM578 940q0 11 12 24q90 91 109 118q28 40 73 146q9 23 29 23q31 0 31 -30q0 -4 -1 -9q-53 -195 -203 -298q-11 -7 -19 -7 q-31 0 -31 33z" />
<glyph unicode="&#x201e;" horiz-adv-x="665" d="M-137 -249q0 11 12 23q91 91 110 119q28 40 71 146q10 23 29 23q32 0 32 -30q0 -4 -1 -9q-53 -195 -203 -298q-11 -7 -19 -7q-32 0 -31 33zM259 -249q0 11 12 23q91 91 110 119q28 40 72 146q10 23 29 23q32 0 32 -30q0 -4 -1 -9q-53 -195 -204 -298q-11 -7 -18 -7 q-32 0 -32 33z" />
<glyph unicode="&#x2022;" d="M61 591q0 38 9 71q12 45 41 85q36 49 75 49q70 1 70 -114q0 -36 -8 -68q-12 -46 -40 -85q-35 -49 -75 -50q-72 0 -72 112zM63 240q0 127 83 195q77 63 206 63q54 0 101 -13q99 -27 173 -99q84 -81 84 -175q0 -62 -40 -132q-46 -79 -103 -79q-26 0 -61 27.5t-63 27.5 q-15 0 -44.5 -10t-45.5 -10q-34 0 -72.5 41.5t-74.5 41.5q-10 0 -28.5 -3t-27.5 -3q-87 0 -87 128zM292 649q0 37 8 71q12 46 42 85q36 49 75 49q70 0 70 -115q0 -36 -8 -67q-12 -47 -40 -85q-35 -49 -74 -50q-73 0 -73 112zM515 589q0 37 9 71q11 46 42 85q36 49 74 50 q71 -1 71 -116q0 -36 -8 -67q-12 -47 -41 -85q-35 -49 -74 -50q-72 0 -73 112zM686 424q0 37 9 70q12 46 41 86q36 49 75 49q71 0 71 -115q0 -36 -8 -67q-12 -47 -41 -86q-35 -49 -75 -49q-72 0 -72 112z" />
<glyph unicode="&#x2026;" horiz-adv-x="1278" d="M-53 56q0 29 22.5 50.5t52.5 21.5q57 0 57 -55q0 -29 -23 -51t-52 -22q-57 0 -57 56zM476 56q0 29 22.5 50.5t52.5 21.5q57 0 57 -55q0 -29 -23 -51t-52 -22q-57 0 -57 56zM1004 56q0 29 22.5 50.5t52.5 21.5q57 0 57 -55q0 -29 -22.5 -51t-52.5 -22q-57 0 -57 56z" />
<glyph unicode="&#x202f;" horiz-adv-x="330" />
<glyph unicode="&#x2039;" horiz-adv-x="347" d="M43 423q0 16 6 23l304 396q10 13 24 13q33 1 33 -31q0 -10 -7 -19l-296 -385q23 -93 67 -278q23 -100 22 -112q0 -30 -31 -30q-20 0 -29.5 25t-51 202.5t-41.5 195.5z" />
<glyph unicode="&#x203a;" horiz-adv-x="347" d="M-63 31q0 10 8 18l295 385q-23 93 -66 279q-23 100 -23 111q0 30 31 30q20 0 29 -23q10 -26 51.5 -203.5t41.5 -195.5q0 -16 -6 -23l-304 -397q-10 -13 -24 -13q-33 0 -33 32z" />
<glyph unicode="&#x205f;" horiz-adv-x="412" />
<glyph unicode="&#x20ac;" horiz-adv-x="1319" d="M62 493q0 31 30 31h141q9 102 51 203h-121q-31 0 -31 31t31 30h150q105 198 301 328q204 135 422 135q267 0 398 -187q7 -8 7 -18q0 -31 -33 -31q-11 0 -23 13q-85 89 -155 123q-78 38 -194 38q-192 0 -376 -117q-175 -111 -277 -284h661q31 0 31 -30q0 -31 -31 -31h-693 q-47 -100 -57 -203h547q31 0 31 -31t-31 -31h-549q4 -181 125 -292q118 -108 300 -108q124 0 238 47q82 34 210 120q11 7 20 7q31 0 31 -32q0 -12 -13 -23q-85 -79 -227 -131q-137 -50 -259 -50q-208 0 -344 126q-139 129 -143 336h-138q-31 0 -30 31z" />
<glyph unicode="&#x2122;" horiz-adv-x="1284" d="M256 1220q0 31 31 31h397q30 0 30 -31t-30 -31h-175q-22 -92 -105 -393l-35 -130q-4 -17 -13 -49q-10 -23 -29 -22q-32 0 -32 30q0 8 34 136q35 132 116 428h-158q-31 0 -31 31zM482 1251h5h-5zM570 625q0 11 136 288q130 269 159 320q12 23 30 23q24 0 28 -31l63 -387 l278 400q12 18 29 17q27 0 27 -33v-4l-27 -594q-2 -29 -31 -29q-33 0 -31 32l22 488l-260 -375q-12 -18 -28 -18q-23 0 -29 30l-58 368l-249 -508q-9 -18 -26 -17q-33 0 -33 30z" />
<glyph unicode="&#x25fc;" horiz-adv-x="854" d="M0 0v854h854v-854h-854z" />
<glyph unicode="&#xfb01;" horiz-adv-x="835" d="M30 -366q0 9 73 284l235 875h-157q-31 0 -30 31q0 31 30 30h174l48 176q25 92 105.5 156.5t175.5 64.5q99 0 149 -71q6 -8 6 -18q0 -31 -31 -31q-4 0 -42 29t-82 29q-73 0 -138 -52t-84 -123l-43 -160h357q31 0 31 -29q0 -10 -41 -160q-43 -161 -130 -483 q-11 -55 -43 -159q-11 -23 -29 -23q-32 0 -32 30q0 10 46 181l158 582h-333l-312 -1166q-6 -23 -29 -23q-32 0 -32 30z" />
<glyph unicode="&#xfb02;" d="M30 -366q0 9 73 284l235 875h-157q-31 0 -30 31q0 31 30 30h174l48 176q25 92 105.5 156.5t175.5 64.5q78 0 130.5 -50t52.5 -128q0 -29 -8 -59l-212 -793q-6 -22 -7 -43q0 -53 34 -84.5t87 -31.5q31 0 31 -31t-31 -31q-78 0 -130 50t-52 128q0 29 8 59l212 793 q6 22 6 43q0 53 -34.5 84.5t-86.5 31.5q-73 0 -138 -52t-84 -123l-43 -160h159q31 0 31 -30q0 -31 -31 -31h-175l-312 -1166q-6 -23 -29 -23q-32 0 -32 30z" />
<glyph unicode="&#xfb03;" horiz-adv-x="1231" d="M30 -366q0 11 73 284l235 875h-157q-31 0 -30 31q0 31 30 30h174l48 176q25 92 105.5 156.5t175.5 64.5q131 0 171 -113q92 113 225 113q98 0 150 -71q6 -8 6 -18q0 -31 -32 -31q-4 0 -43 29t-81 29q-74 0 -138 -51.5t-83 -123.5l-43 -160h356q31 0 31 -29 q0 -11 -40 -160l-131 -483q-10 -55 -43 -159q-11 -23 -29 -23q-32 0 -32 30q0 11 46 181l158 582h-333l-312 -1166q-6 -23 -29 -23q-32 0 -32 30q0 11 73 284l236 875h-332l-312 -1166q-6 -23 -29 -23q-32 0 -32 30zM419 854h332q54 198 54 219q0 53 -34.5 84.5t-86.5 31.5 q-73 0 -137.5 -52t-84.5 -123z" />
<glyph unicode="&#xfb04;" horiz-adv-x="1338" d="M30 -366q0 10 73 284l235 875h-157q-31 0 -30 31q0 31 30 30h174l48 176q25 92 105.5 156.5t175.5 64.5q131 0 171 -113q92 113 225 113q78 0 130.5 -50t52.5 -128q0 -29 -8 -59l-212 -793q-6 -22 -6 -43q0 -53 34 -84.5t86 -31.5q31 0 31 -31t-31 -31q-78 0 -130 50 t-52 128q0 29 8 59l212 793q6 22 6 43q0 53 -34 84.5t-87 31.5q-73 0 -137.5 -52t-83.5 -123l-43 -160h158q31 0 31 -30q0 -31 -31 -31h-175l-312 -1166q-6 -23 -29 -23q-32 0 -32 30q0 10 73 284l236 875h-332l-312 -1166q-6 -23 -29 -23q-32 0 -32 30zM419 854h332 q54 198 54 219q0 53 -34.5 84.5t-86.5 31.5q-73 0 -137.5 -52t-84.5 -123z" />
</font>
</defs>
</svg>
